G04 #@! TF.GenerationSoftware,KiCad,Pcbnew,(5.1.5)-3*
G04 #@! TF.CreationDate,2020-06-13T13:18:50-04:00*
G04 #@! TF.ProjectId,512x512,35313278-3531-4322-9e6b-696361645f70,rev?*
G04 #@! TF.SameCoordinates,Original*
G04 #@! TF.FileFunction,Copper,L1,Top*
G04 #@! TF.FilePolarity,Positive*
%FSLAX46Y46*%
G04 Gerber Fmt 4.6, Leading zero omitted, Abs format (unit mm)*
G04 Created by KiCad (PCBNEW (5.1.5)-3) date 2020-06-13 13:18:50*
%MOMM*%
%LPD*%
G04 APERTURE LIST*
%ADD10R,1.727200X2.032000*%
%ADD11O,1.727200X2.032000*%
%ADD12O,1.400000X1.400000*%
%ADD13C,1.400000*%
%ADD14R,1.600000X1.600000*%
%ADD15O,1.600000X1.600000*%
%ADD16C,0.100000*%
%ADD17C,0.600000*%
%ADD18C,0.350000*%
%ADD19C,0.250000*%
G04 APERTURE END LIST*
D10*
X155702000Y-151612600D03*
D11*
X158242000Y-151612600D03*
X160782000Y-151612600D03*
X163322000Y-151612600D03*
X165862000Y-151612600D03*
X168402000Y-151612600D03*
X170942000Y-151612600D03*
X173482000Y-151612600D03*
X176022000Y-151612600D03*
X178562000Y-151612600D03*
X181102000Y-151612600D03*
X183642000Y-151612600D03*
X186182000Y-151612600D03*
X188722000Y-151612600D03*
X191262000Y-151612600D03*
X193802000Y-151612600D03*
X196342000Y-151612600D03*
X198882000Y-151612600D03*
X201422000Y-151612600D03*
X203962000Y-151612600D03*
X206502000Y-151612600D03*
X209042000Y-151612600D03*
X211582000Y-151612600D03*
X214122000Y-151612600D03*
X216662000Y-151612600D03*
X219202000Y-151612600D03*
X221742000Y-151612600D03*
X224282000Y-151612600D03*
X226822000Y-151612600D03*
X229362000Y-151612600D03*
X231902000Y-151612600D03*
X234442000Y-151612600D03*
X236982000Y-151612600D03*
X239522000Y-151612600D03*
X242062000Y-151612600D03*
X244602000Y-151612600D03*
X247142000Y-151612600D03*
X249682000Y-151612600D03*
X252222000Y-151612600D03*
D12*
X224790000Y-115570000D03*
D13*
X224790000Y-107950000D03*
X222250000Y-107950000D03*
D12*
X222250000Y-115570000D03*
X219710000Y-115570000D03*
D13*
X219710000Y-107950000D03*
X217170000Y-107950000D03*
D12*
X217170000Y-115570000D03*
X214630000Y-115570000D03*
D13*
X214630000Y-107950000D03*
X212090000Y-107950000D03*
D12*
X212090000Y-115570000D03*
X209550000Y-115570000D03*
D13*
X209550000Y-107950000D03*
X207010000Y-107950000D03*
D12*
X207010000Y-115570000D03*
D14*
X165735000Y-146050000D03*
D15*
X203835000Y-130810000D03*
X168275000Y-146050000D03*
X201295000Y-130810000D03*
X170815000Y-146050000D03*
X198755000Y-130810000D03*
X173355000Y-146050000D03*
X196215000Y-130810000D03*
X175895000Y-146050000D03*
X193675000Y-130810000D03*
X178435000Y-146050000D03*
X191135000Y-130810000D03*
X180975000Y-146050000D03*
X188595000Y-130810000D03*
X183515000Y-146050000D03*
X186055000Y-130810000D03*
X186055000Y-146050000D03*
X183515000Y-130810000D03*
X188595000Y-146050000D03*
X180975000Y-130810000D03*
X191135000Y-146050000D03*
X178435000Y-130810000D03*
X193675000Y-146050000D03*
X175895000Y-130810000D03*
X196215000Y-146050000D03*
X173355000Y-130810000D03*
X198755000Y-146050000D03*
X170815000Y-130810000D03*
X201295000Y-146050000D03*
X168275000Y-130810000D03*
X203835000Y-146050000D03*
X165735000Y-130810000D03*
X165735000Y-112395000D03*
X203835000Y-127635000D03*
X168275000Y-112395000D03*
X201295000Y-127635000D03*
X170815000Y-112395000D03*
X198755000Y-127635000D03*
X173355000Y-112395000D03*
X196215000Y-127635000D03*
X175895000Y-112395000D03*
X193675000Y-127635000D03*
X178435000Y-112395000D03*
X191135000Y-127635000D03*
X180975000Y-112395000D03*
X188595000Y-127635000D03*
X183515000Y-112395000D03*
X186055000Y-127635000D03*
X186055000Y-112395000D03*
X183515000Y-127635000D03*
X188595000Y-112395000D03*
X180975000Y-127635000D03*
X191135000Y-112395000D03*
X178435000Y-127635000D03*
X193675000Y-112395000D03*
X175895000Y-127635000D03*
X196215000Y-112395000D03*
X173355000Y-127635000D03*
X198755000Y-112395000D03*
X170815000Y-127635000D03*
X201295000Y-112395000D03*
X168275000Y-127635000D03*
X203835000Y-112395000D03*
D14*
X165735000Y-127635000D03*
D15*
X229235000Y-138430000D03*
X247015000Y-146050000D03*
X231775000Y-138430000D03*
X244475000Y-146050000D03*
X234315000Y-138430000D03*
X241935000Y-146050000D03*
X236855000Y-138430000D03*
X239395000Y-146050000D03*
X239395000Y-138430000D03*
X236855000Y-146050000D03*
X241935000Y-138430000D03*
X234315000Y-146050000D03*
X244475000Y-138430000D03*
X231775000Y-146050000D03*
X247015000Y-138430000D03*
D14*
X229235000Y-146050000D03*
X229235000Y-135890000D03*
D15*
X247015000Y-128270000D03*
X231775000Y-135890000D03*
X244475000Y-128270000D03*
X234315000Y-135890000D03*
X241935000Y-128270000D03*
X236855000Y-135890000D03*
X239395000Y-128270000D03*
X239395000Y-135890000D03*
X236855000Y-128270000D03*
X241935000Y-135890000D03*
X234315000Y-128270000D03*
X244475000Y-135890000D03*
X231775000Y-128270000D03*
X247015000Y-135890000D03*
X229235000Y-128270000D03*
D14*
X229235000Y-125730000D03*
D15*
X247015000Y-118110000D03*
X231775000Y-125730000D03*
X244475000Y-118110000D03*
X234315000Y-125730000D03*
X241935000Y-118110000D03*
X236855000Y-125730000D03*
X239395000Y-118110000D03*
X239395000Y-125730000D03*
X236855000Y-118110000D03*
X241935000Y-125730000D03*
X234315000Y-118110000D03*
X244475000Y-125730000D03*
X231775000Y-118110000D03*
X247015000Y-125730000D03*
X229235000Y-118110000D03*
D14*
X208915000Y-146050000D03*
D15*
X224155000Y-138430000D03*
X211455000Y-146050000D03*
X221615000Y-138430000D03*
X213995000Y-146050000D03*
X219075000Y-138430000D03*
X216535000Y-146050000D03*
X216535000Y-138430000D03*
X219075000Y-146050000D03*
X213995000Y-138430000D03*
X221615000Y-146050000D03*
X211455000Y-138430000D03*
X224155000Y-146050000D03*
X208915000Y-138430000D03*
X229235000Y-107950000D03*
X247015000Y-115570000D03*
X231775000Y-107950000D03*
X244475000Y-115570000D03*
X234315000Y-107950000D03*
X241935000Y-115570000D03*
X236855000Y-107950000D03*
X239395000Y-115570000D03*
X239395000Y-107950000D03*
X236855000Y-115570000D03*
X241935000Y-107950000D03*
X234315000Y-115570000D03*
X244475000Y-107950000D03*
X231775000Y-115570000D03*
X247015000Y-107950000D03*
D14*
X229235000Y-115570000D03*
G04 #@! TA.AperFunction,SMDPad,CuDef*
D16*
G36*
X161377691Y-130336053D02*
G01*
X161398926Y-130339203D01*
X161419750Y-130344419D01*
X161439962Y-130351651D01*
X161459368Y-130360830D01*
X161477781Y-130371866D01*
X161495024Y-130384654D01*
X161510930Y-130399070D01*
X161525346Y-130414976D01*
X161538134Y-130432219D01*
X161549170Y-130450632D01*
X161558349Y-130470038D01*
X161565581Y-130490250D01*
X161570797Y-130511074D01*
X161573947Y-130532309D01*
X161575000Y-130553750D01*
X161575000Y-131066250D01*
X161573947Y-131087691D01*
X161570797Y-131108926D01*
X161565581Y-131129750D01*
X161558349Y-131149962D01*
X161549170Y-131169368D01*
X161538134Y-131187781D01*
X161525346Y-131205024D01*
X161510930Y-131220930D01*
X161495024Y-131235346D01*
X161477781Y-131248134D01*
X161459368Y-131259170D01*
X161439962Y-131268349D01*
X161419750Y-131275581D01*
X161398926Y-131280797D01*
X161377691Y-131283947D01*
X161356250Y-131285000D01*
X160918750Y-131285000D01*
X160897309Y-131283947D01*
X160876074Y-131280797D01*
X160855250Y-131275581D01*
X160835038Y-131268349D01*
X160815632Y-131259170D01*
X160797219Y-131248134D01*
X160779976Y-131235346D01*
X160764070Y-131220930D01*
X160749654Y-131205024D01*
X160736866Y-131187781D01*
X160725830Y-131169368D01*
X160716651Y-131149962D01*
X160709419Y-131129750D01*
X160704203Y-131108926D01*
X160701053Y-131087691D01*
X160700000Y-131066250D01*
X160700000Y-130553750D01*
X160701053Y-130532309D01*
X160704203Y-130511074D01*
X160709419Y-130490250D01*
X160716651Y-130470038D01*
X160725830Y-130450632D01*
X160736866Y-130432219D01*
X160749654Y-130414976D01*
X160764070Y-130399070D01*
X160779976Y-130384654D01*
X160797219Y-130371866D01*
X160815632Y-130360830D01*
X160835038Y-130351651D01*
X160855250Y-130344419D01*
X160876074Y-130339203D01*
X160897309Y-130336053D01*
X160918750Y-130335000D01*
X161356250Y-130335000D01*
X161377691Y-130336053D01*
G37*
G04 #@! TD.AperFunction*
G04 #@! TA.AperFunction,SMDPad,CuDef*
G36*
X162952691Y-130336053D02*
G01*
X162973926Y-130339203D01*
X162994750Y-130344419D01*
X163014962Y-130351651D01*
X163034368Y-130360830D01*
X163052781Y-130371866D01*
X163070024Y-130384654D01*
X163085930Y-130399070D01*
X163100346Y-130414976D01*
X163113134Y-130432219D01*
X163124170Y-130450632D01*
X163133349Y-130470038D01*
X163140581Y-130490250D01*
X163145797Y-130511074D01*
X163148947Y-130532309D01*
X163150000Y-130553750D01*
X163150000Y-131066250D01*
X163148947Y-131087691D01*
X163145797Y-131108926D01*
X163140581Y-131129750D01*
X163133349Y-131149962D01*
X163124170Y-131169368D01*
X163113134Y-131187781D01*
X163100346Y-131205024D01*
X163085930Y-131220930D01*
X163070024Y-131235346D01*
X163052781Y-131248134D01*
X163034368Y-131259170D01*
X163014962Y-131268349D01*
X162994750Y-131275581D01*
X162973926Y-131280797D01*
X162952691Y-131283947D01*
X162931250Y-131285000D01*
X162493750Y-131285000D01*
X162472309Y-131283947D01*
X162451074Y-131280797D01*
X162430250Y-131275581D01*
X162410038Y-131268349D01*
X162390632Y-131259170D01*
X162372219Y-131248134D01*
X162354976Y-131235346D01*
X162339070Y-131220930D01*
X162324654Y-131205024D01*
X162311866Y-131187781D01*
X162300830Y-131169368D01*
X162291651Y-131149962D01*
X162284419Y-131129750D01*
X162279203Y-131108926D01*
X162276053Y-131087691D01*
X162275000Y-131066250D01*
X162275000Y-130553750D01*
X162276053Y-130532309D01*
X162279203Y-130511074D01*
X162284419Y-130490250D01*
X162291651Y-130470038D01*
X162300830Y-130450632D01*
X162311866Y-130432219D01*
X162324654Y-130414976D01*
X162339070Y-130399070D01*
X162354976Y-130384654D01*
X162372219Y-130371866D01*
X162390632Y-130360830D01*
X162410038Y-130351651D01*
X162430250Y-130344419D01*
X162451074Y-130339203D01*
X162472309Y-130336053D01*
X162493750Y-130335000D01*
X162931250Y-130335000D01*
X162952691Y-130336053D01*
G37*
G04 #@! TD.AperFunction*
G04 #@! TA.AperFunction,SMDPad,CuDef*
G36*
X162952691Y-133511053D02*
G01*
X162973926Y-133514203D01*
X162994750Y-133519419D01*
X163014962Y-133526651D01*
X163034368Y-133535830D01*
X163052781Y-133546866D01*
X163070024Y-133559654D01*
X163085930Y-133574070D01*
X163100346Y-133589976D01*
X163113134Y-133607219D01*
X163124170Y-133625632D01*
X163133349Y-133645038D01*
X163140581Y-133665250D01*
X163145797Y-133686074D01*
X163148947Y-133707309D01*
X163150000Y-133728750D01*
X163150000Y-134241250D01*
X163148947Y-134262691D01*
X163145797Y-134283926D01*
X163140581Y-134304750D01*
X163133349Y-134324962D01*
X163124170Y-134344368D01*
X163113134Y-134362781D01*
X163100346Y-134380024D01*
X163085930Y-134395930D01*
X163070024Y-134410346D01*
X163052781Y-134423134D01*
X163034368Y-134434170D01*
X163014962Y-134443349D01*
X162994750Y-134450581D01*
X162973926Y-134455797D01*
X162952691Y-134458947D01*
X162931250Y-134460000D01*
X162493750Y-134460000D01*
X162472309Y-134458947D01*
X162451074Y-134455797D01*
X162430250Y-134450581D01*
X162410038Y-134443349D01*
X162390632Y-134434170D01*
X162372219Y-134423134D01*
X162354976Y-134410346D01*
X162339070Y-134395930D01*
X162324654Y-134380024D01*
X162311866Y-134362781D01*
X162300830Y-134344368D01*
X162291651Y-134324962D01*
X162284419Y-134304750D01*
X162279203Y-134283926D01*
X162276053Y-134262691D01*
X162275000Y-134241250D01*
X162275000Y-133728750D01*
X162276053Y-133707309D01*
X162279203Y-133686074D01*
X162284419Y-133665250D01*
X162291651Y-133645038D01*
X162300830Y-133625632D01*
X162311866Y-133607219D01*
X162324654Y-133589976D01*
X162339070Y-133574070D01*
X162354976Y-133559654D01*
X162372219Y-133546866D01*
X162390632Y-133535830D01*
X162410038Y-133526651D01*
X162430250Y-133519419D01*
X162451074Y-133514203D01*
X162472309Y-133511053D01*
X162493750Y-133510000D01*
X162931250Y-133510000D01*
X162952691Y-133511053D01*
G37*
G04 #@! TD.AperFunction*
G04 #@! TA.AperFunction,SMDPad,CuDef*
G36*
X161377691Y-133511053D02*
G01*
X161398926Y-133514203D01*
X161419750Y-133519419D01*
X161439962Y-133526651D01*
X161459368Y-133535830D01*
X161477781Y-133546866D01*
X161495024Y-133559654D01*
X161510930Y-133574070D01*
X161525346Y-133589976D01*
X161538134Y-133607219D01*
X161549170Y-133625632D01*
X161558349Y-133645038D01*
X161565581Y-133665250D01*
X161570797Y-133686074D01*
X161573947Y-133707309D01*
X161575000Y-133728750D01*
X161575000Y-134241250D01*
X161573947Y-134262691D01*
X161570797Y-134283926D01*
X161565581Y-134304750D01*
X161558349Y-134324962D01*
X161549170Y-134344368D01*
X161538134Y-134362781D01*
X161525346Y-134380024D01*
X161510930Y-134395930D01*
X161495024Y-134410346D01*
X161477781Y-134423134D01*
X161459368Y-134434170D01*
X161439962Y-134443349D01*
X161419750Y-134450581D01*
X161398926Y-134455797D01*
X161377691Y-134458947D01*
X161356250Y-134460000D01*
X160918750Y-134460000D01*
X160897309Y-134458947D01*
X160876074Y-134455797D01*
X160855250Y-134450581D01*
X160835038Y-134443349D01*
X160815632Y-134434170D01*
X160797219Y-134423134D01*
X160779976Y-134410346D01*
X160764070Y-134395930D01*
X160749654Y-134380024D01*
X160736866Y-134362781D01*
X160725830Y-134344368D01*
X160716651Y-134324962D01*
X160709419Y-134304750D01*
X160704203Y-134283926D01*
X160701053Y-134262691D01*
X160700000Y-134241250D01*
X160700000Y-133728750D01*
X160701053Y-133707309D01*
X160704203Y-133686074D01*
X160709419Y-133665250D01*
X160716651Y-133645038D01*
X160725830Y-133625632D01*
X160736866Y-133607219D01*
X160749654Y-133589976D01*
X160764070Y-133574070D01*
X160779976Y-133559654D01*
X160797219Y-133546866D01*
X160815632Y-133535830D01*
X160835038Y-133526651D01*
X160855250Y-133519419D01*
X160876074Y-133514203D01*
X160897309Y-133511053D01*
X160918750Y-133510000D01*
X161356250Y-133510000D01*
X161377691Y-133511053D01*
G37*
G04 #@! TD.AperFunction*
G04 #@! TA.AperFunction,SMDPad,CuDef*
G36*
X161377691Y-113191053D02*
G01*
X161398926Y-113194203D01*
X161419750Y-113199419D01*
X161439962Y-113206651D01*
X161459368Y-113215830D01*
X161477781Y-113226866D01*
X161495024Y-113239654D01*
X161510930Y-113254070D01*
X161525346Y-113269976D01*
X161538134Y-113287219D01*
X161549170Y-113305632D01*
X161558349Y-113325038D01*
X161565581Y-113345250D01*
X161570797Y-113366074D01*
X161573947Y-113387309D01*
X161575000Y-113408750D01*
X161575000Y-113921250D01*
X161573947Y-113942691D01*
X161570797Y-113963926D01*
X161565581Y-113984750D01*
X161558349Y-114004962D01*
X161549170Y-114024368D01*
X161538134Y-114042781D01*
X161525346Y-114060024D01*
X161510930Y-114075930D01*
X161495024Y-114090346D01*
X161477781Y-114103134D01*
X161459368Y-114114170D01*
X161439962Y-114123349D01*
X161419750Y-114130581D01*
X161398926Y-114135797D01*
X161377691Y-114138947D01*
X161356250Y-114140000D01*
X160918750Y-114140000D01*
X160897309Y-114138947D01*
X160876074Y-114135797D01*
X160855250Y-114130581D01*
X160835038Y-114123349D01*
X160815632Y-114114170D01*
X160797219Y-114103134D01*
X160779976Y-114090346D01*
X160764070Y-114075930D01*
X160749654Y-114060024D01*
X160736866Y-114042781D01*
X160725830Y-114024368D01*
X160716651Y-114004962D01*
X160709419Y-113984750D01*
X160704203Y-113963926D01*
X160701053Y-113942691D01*
X160700000Y-113921250D01*
X160700000Y-113408750D01*
X160701053Y-113387309D01*
X160704203Y-113366074D01*
X160709419Y-113345250D01*
X160716651Y-113325038D01*
X160725830Y-113305632D01*
X160736866Y-113287219D01*
X160749654Y-113269976D01*
X160764070Y-113254070D01*
X160779976Y-113239654D01*
X160797219Y-113226866D01*
X160815632Y-113215830D01*
X160835038Y-113206651D01*
X160855250Y-113199419D01*
X160876074Y-113194203D01*
X160897309Y-113191053D01*
X160918750Y-113190000D01*
X161356250Y-113190000D01*
X161377691Y-113191053D01*
G37*
G04 #@! TD.AperFunction*
G04 #@! TA.AperFunction,SMDPad,CuDef*
G36*
X162952691Y-113191053D02*
G01*
X162973926Y-113194203D01*
X162994750Y-113199419D01*
X163014962Y-113206651D01*
X163034368Y-113215830D01*
X163052781Y-113226866D01*
X163070024Y-113239654D01*
X163085930Y-113254070D01*
X163100346Y-113269976D01*
X163113134Y-113287219D01*
X163124170Y-113305632D01*
X163133349Y-113325038D01*
X163140581Y-113345250D01*
X163145797Y-113366074D01*
X163148947Y-113387309D01*
X163150000Y-113408750D01*
X163150000Y-113921250D01*
X163148947Y-113942691D01*
X163145797Y-113963926D01*
X163140581Y-113984750D01*
X163133349Y-114004962D01*
X163124170Y-114024368D01*
X163113134Y-114042781D01*
X163100346Y-114060024D01*
X163085930Y-114075930D01*
X163070024Y-114090346D01*
X163052781Y-114103134D01*
X163034368Y-114114170D01*
X163014962Y-114123349D01*
X162994750Y-114130581D01*
X162973926Y-114135797D01*
X162952691Y-114138947D01*
X162931250Y-114140000D01*
X162493750Y-114140000D01*
X162472309Y-114138947D01*
X162451074Y-114135797D01*
X162430250Y-114130581D01*
X162410038Y-114123349D01*
X162390632Y-114114170D01*
X162372219Y-114103134D01*
X162354976Y-114090346D01*
X162339070Y-114075930D01*
X162324654Y-114060024D01*
X162311866Y-114042781D01*
X162300830Y-114024368D01*
X162291651Y-114004962D01*
X162284419Y-113984750D01*
X162279203Y-113963926D01*
X162276053Y-113942691D01*
X162275000Y-113921250D01*
X162275000Y-113408750D01*
X162276053Y-113387309D01*
X162279203Y-113366074D01*
X162284419Y-113345250D01*
X162291651Y-113325038D01*
X162300830Y-113305632D01*
X162311866Y-113287219D01*
X162324654Y-113269976D01*
X162339070Y-113254070D01*
X162354976Y-113239654D01*
X162372219Y-113226866D01*
X162390632Y-113215830D01*
X162410038Y-113206651D01*
X162430250Y-113199419D01*
X162451074Y-113194203D01*
X162472309Y-113191053D01*
X162493750Y-113190000D01*
X162931250Y-113190000D01*
X162952691Y-113191053D01*
G37*
G04 #@! TD.AperFunction*
G04 #@! TA.AperFunction,SMDPad,CuDef*
G36*
X162952691Y-115731053D02*
G01*
X162973926Y-115734203D01*
X162994750Y-115739419D01*
X163014962Y-115746651D01*
X163034368Y-115755830D01*
X163052781Y-115766866D01*
X163070024Y-115779654D01*
X163085930Y-115794070D01*
X163100346Y-115809976D01*
X163113134Y-115827219D01*
X163124170Y-115845632D01*
X163133349Y-115865038D01*
X163140581Y-115885250D01*
X163145797Y-115906074D01*
X163148947Y-115927309D01*
X163150000Y-115948750D01*
X163150000Y-116461250D01*
X163148947Y-116482691D01*
X163145797Y-116503926D01*
X163140581Y-116524750D01*
X163133349Y-116544962D01*
X163124170Y-116564368D01*
X163113134Y-116582781D01*
X163100346Y-116600024D01*
X163085930Y-116615930D01*
X163070024Y-116630346D01*
X163052781Y-116643134D01*
X163034368Y-116654170D01*
X163014962Y-116663349D01*
X162994750Y-116670581D01*
X162973926Y-116675797D01*
X162952691Y-116678947D01*
X162931250Y-116680000D01*
X162493750Y-116680000D01*
X162472309Y-116678947D01*
X162451074Y-116675797D01*
X162430250Y-116670581D01*
X162410038Y-116663349D01*
X162390632Y-116654170D01*
X162372219Y-116643134D01*
X162354976Y-116630346D01*
X162339070Y-116615930D01*
X162324654Y-116600024D01*
X162311866Y-116582781D01*
X162300830Y-116564368D01*
X162291651Y-116544962D01*
X162284419Y-116524750D01*
X162279203Y-116503926D01*
X162276053Y-116482691D01*
X162275000Y-116461250D01*
X162275000Y-115948750D01*
X162276053Y-115927309D01*
X162279203Y-115906074D01*
X162284419Y-115885250D01*
X162291651Y-115865038D01*
X162300830Y-115845632D01*
X162311866Y-115827219D01*
X162324654Y-115809976D01*
X162339070Y-115794070D01*
X162354976Y-115779654D01*
X162372219Y-115766866D01*
X162390632Y-115755830D01*
X162410038Y-115746651D01*
X162430250Y-115739419D01*
X162451074Y-115734203D01*
X162472309Y-115731053D01*
X162493750Y-115730000D01*
X162931250Y-115730000D01*
X162952691Y-115731053D01*
G37*
G04 #@! TD.AperFunction*
G04 #@! TA.AperFunction,SMDPad,CuDef*
G36*
X161377691Y-115731053D02*
G01*
X161398926Y-115734203D01*
X161419750Y-115739419D01*
X161439962Y-115746651D01*
X161459368Y-115755830D01*
X161477781Y-115766866D01*
X161495024Y-115779654D01*
X161510930Y-115794070D01*
X161525346Y-115809976D01*
X161538134Y-115827219D01*
X161549170Y-115845632D01*
X161558349Y-115865038D01*
X161565581Y-115885250D01*
X161570797Y-115906074D01*
X161573947Y-115927309D01*
X161575000Y-115948750D01*
X161575000Y-116461250D01*
X161573947Y-116482691D01*
X161570797Y-116503926D01*
X161565581Y-116524750D01*
X161558349Y-116544962D01*
X161549170Y-116564368D01*
X161538134Y-116582781D01*
X161525346Y-116600024D01*
X161510930Y-116615930D01*
X161495024Y-116630346D01*
X161477781Y-116643134D01*
X161459368Y-116654170D01*
X161439962Y-116663349D01*
X161419750Y-116670581D01*
X161398926Y-116675797D01*
X161377691Y-116678947D01*
X161356250Y-116680000D01*
X160918750Y-116680000D01*
X160897309Y-116678947D01*
X160876074Y-116675797D01*
X160855250Y-116670581D01*
X160835038Y-116663349D01*
X160815632Y-116654170D01*
X160797219Y-116643134D01*
X160779976Y-116630346D01*
X160764070Y-116615930D01*
X160749654Y-116600024D01*
X160736866Y-116582781D01*
X160725830Y-116564368D01*
X160716651Y-116544962D01*
X160709419Y-116524750D01*
X160704203Y-116503926D01*
X160701053Y-116482691D01*
X160700000Y-116461250D01*
X160700000Y-115948750D01*
X160701053Y-115927309D01*
X160704203Y-115906074D01*
X160709419Y-115885250D01*
X160716651Y-115865038D01*
X160725830Y-115845632D01*
X160736866Y-115827219D01*
X160749654Y-115809976D01*
X160764070Y-115794070D01*
X160779976Y-115779654D01*
X160797219Y-115766866D01*
X160815632Y-115755830D01*
X160835038Y-115746651D01*
X160855250Y-115739419D01*
X160876074Y-115734203D01*
X160897309Y-115731053D01*
X160918750Y-115730000D01*
X161356250Y-115730000D01*
X161377691Y-115731053D01*
G37*
G04 #@! TD.AperFunction*
G04 #@! TA.AperFunction,SMDPad,CuDef*
G36*
X251852691Y-140496053D02*
G01*
X251873926Y-140499203D01*
X251894750Y-140504419D01*
X251914962Y-140511651D01*
X251934368Y-140520830D01*
X251952781Y-140531866D01*
X251970024Y-140544654D01*
X251985930Y-140559070D01*
X252000346Y-140574976D01*
X252013134Y-140592219D01*
X252024170Y-140610632D01*
X252033349Y-140630038D01*
X252040581Y-140650250D01*
X252045797Y-140671074D01*
X252048947Y-140692309D01*
X252050000Y-140713750D01*
X252050000Y-141226250D01*
X252048947Y-141247691D01*
X252045797Y-141268926D01*
X252040581Y-141289750D01*
X252033349Y-141309962D01*
X252024170Y-141329368D01*
X252013134Y-141347781D01*
X252000346Y-141365024D01*
X251985930Y-141380930D01*
X251970024Y-141395346D01*
X251952781Y-141408134D01*
X251934368Y-141419170D01*
X251914962Y-141428349D01*
X251894750Y-141435581D01*
X251873926Y-141440797D01*
X251852691Y-141443947D01*
X251831250Y-141445000D01*
X251393750Y-141445000D01*
X251372309Y-141443947D01*
X251351074Y-141440797D01*
X251330250Y-141435581D01*
X251310038Y-141428349D01*
X251290632Y-141419170D01*
X251272219Y-141408134D01*
X251254976Y-141395346D01*
X251239070Y-141380930D01*
X251224654Y-141365024D01*
X251211866Y-141347781D01*
X251200830Y-141329368D01*
X251191651Y-141309962D01*
X251184419Y-141289750D01*
X251179203Y-141268926D01*
X251176053Y-141247691D01*
X251175000Y-141226250D01*
X251175000Y-140713750D01*
X251176053Y-140692309D01*
X251179203Y-140671074D01*
X251184419Y-140650250D01*
X251191651Y-140630038D01*
X251200830Y-140610632D01*
X251211866Y-140592219D01*
X251224654Y-140574976D01*
X251239070Y-140559070D01*
X251254976Y-140544654D01*
X251272219Y-140531866D01*
X251290632Y-140520830D01*
X251310038Y-140511651D01*
X251330250Y-140504419D01*
X251351074Y-140499203D01*
X251372309Y-140496053D01*
X251393750Y-140495000D01*
X251831250Y-140495000D01*
X251852691Y-140496053D01*
G37*
G04 #@! TD.AperFunction*
G04 #@! TA.AperFunction,SMDPad,CuDef*
G36*
X250277691Y-140496053D02*
G01*
X250298926Y-140499203D01*
X250319750Y-140504419D01*
X250339962Y-140511651D01*
X250359368Y-140520830D01*
X250377781Y-140531866D01*
X250395024Y-140544654D01*
X250410930Y-140559070D01*
X250425346Y-140574976D01*
X250438134Y-140592219D01*
X250449170Y-140610632D01*
X250458349Y-140630038D01*
X250465581Y-140650250D01*
X250470797Y-140671074D01*
X250473947Y-140692309D01*
X250475000Y-140713750D01*
X250475000Y-141226250D01*
X250473947Y-141247691D01*
X250470797Y-141268926D01*
X250465581Y-141289750D01*
X250458349Y-141309962D01*
X250449170Y-141329368D01*
X250438134Y-141347781D01*
X250425346Y-141365024D01*
X250410930Y-141380930D01*
X250395024Y-141395346D01*
X250377781Y-141408134D01*
X250359368Y-141419170D01*
X250339962Y-141428349D01*
X250319750Y-141435581D01*
X250298926Y-141440797D01*
X250277691Y-141443947D01*
X250256250Y-141445000D01*
X249818750Y-141445000D01*
X249797309Y-141443947D01*
X249776074Y-141440797D01*
X249755250Y-141435581D01*
X249735038Y-141428349D01*
X249715632Y-141419170D01*
X249697219Y-141408134D01*
X249679976Y-141395346D01*
X249664070Y-141380930D01*
X249649654Y-141365024D01*
X249636866Y-141347781D01*
X249625830Y-141329368D01*
X249616651Y-141309962D01*
X249609419Y-141289750D01*
X249604203Y-141268926D01*
X249601053Y-141247691D01*
X249600000Y-141226250D01*
X249600000Y-140713750D01*
X249601053Y-140692309D01*
X249604203Y-140671074D01*
X249609419Y-140650250D01*
X249616651Y-140630038D01*
X249625830Y-140610632D01*
X249636866Y-140592219D01*
X249649654Y-140574976D01*
X249664070Y-140559070D01*
X249679976Y-140544654D01*
X249697219Y-140531866D01*
X249715632Y-140520830D01*
X249735038Y-140511651D01*
X249755250Y-140504419D01*
X249776074Y-140499203D01*
X249797309Y-140496053D01*
X249818750Y-140495000D01*
X250256250Y-140495000D01*
X250277691Y-140496053D01*
G37*
G04 #@! TD.AperFunction*
G04 #@! TA.AperFunction,SMDPad,CuDef*
G36*
X250277691Y-143036053D02*
G01*
X250298926Y-143039203D01*
X250319750Y-143044419D01*
X250339962Y-143051651D01*
X250359368Y-143060830D01*
X250377781Y-143071866D01*
X250395024Y-143084654D01*
X250410930Y-143099070D01*
X250425346Y-143114976D01*
X250438134Y-143132219D01*
X250449170Y-143150632D01*
X250458349Y-143170038D01*
X250465581Y-143190250D01*
X250470797Y-143211074D01*
X250473947Y-143232309D01*
X250475000Y-143253750D01*
X250475000Y-143766250D01*
X250473947Y-143787691D01*
X250470797Y-143808926D01*
X250465581Y-143829750D01*
X250458349Y-143849962D01*
X250449170Y-143869368D01*
X250438134Y-143887781D01*
X250425346Y-143905024D01*
X250410930Y-143920930D01*
X250395024Y-143935346D01*
X250377781Y-143948134D01*
X250359368Y-143959170D01*
X250339962Y-143968349D01*
X250319750Y-143975581D01*
X250298926Y-143980797D01*
X250277691Y-143983947D01*
X250256250Y-143985000D01*
X249818750Y-143985000D01*
X249797309Y-143983947D01*
X249776074Y-143980797D01*
X249755250Y-143975581D01*
X249735038Y-143968349D01*
X249715632Y-143959170D01*
X249697219Y-143948134D01*
X249679976Y-143935346D01*
X249664070Y-143920930D01*
X249649654Y-143905024D01*
X249636866Y-143887781D01*
X249625830Y-143869368D01*
X249616651Y-143849962D01*
X249609419Y-143829750D01*
X249604203Y-143808926D01*
X249601053Y-143787691D01*
X249600000Y-143766250D01*
X249600000Y-143253750D01*
X249601053Y-143232309D01*
X249604203Y-143211074D01*
X249609419Y-143190250D01*
X249616651Y-143170038D01*
X249625830Y-143150632D01*
X249636866Y-143132219D01*
X249649654Y-143114976D01*
X249664070Y-143099070D01*
X249679976Y-143084654D01*
X249697219Y-143071866D01*
X249715632Y-143060830D01*
X249735038Y-143051651D01*
X249755250Y-143044419D01*
X249776074Y-143039203D01*
X249797309Y-143036053D01*
X249818750Y-143035000D01*
X250256250Y-143035000D01*
X250277691Y-143036053D01*
G37*
G04 #@! TD.AperFunction*
G04 #@! TA.AperFunction,SMDPad,CuDef*
G36*
X251852691Y-143036053D02*
G01*
X251873926Y-143039203D01*
X251894750Y-143044419D01*
X251914962Y-143051651D01*
X251934368Y-143060830D01*
X251952781Y-143071866D01*
X251970024Y-143084654D01*
X251985930Y-143099070D01*
X252000346Y-143114976D01*
X252013134Y-143132219D01*
X252024170Y-143150632D01*
X252033349Y-143170038D01*
X252040581Y-143190250D01*
X252045797Y-143211074D01*
X252048947Y-143232309D01*
X252050000Y-143253750D01*
X252050000Y-143766250D01*
X252048947Y-143787691D01*
X252045797Y-143808926D01*
X252040581Y-143829750D01*
X252033349Y-143849962D01*
X252024170Y-143869368D01*
X252013134Y-143887781D01*
X252000346Y-143905024D01*
X251985930Y-143920930D01*
X251970024Y-143935346D01*
X251952781Y-143948134D01*
X251934368Y-143959170D01*
X251914962Y-143968349D01*
X251894750Y-143975581D01*
X251873926Y-143980797D01*
X251852691Y-143983947D01*
X251831250Y-143985000D01*
X251393750Y-143985000D01*
X251372309Y-143983947D01*
X251351074Y-143980797D01*
X251330250Y-143975581D01*
X251310038Y-143968349D01*
X251290632Y-143959170D01*
X251272219Y-143948134D01*
X251254976Y-143935346D01*
X251239070Y-143920930D01*
X251224654Y-143905024D01*
X251211866Y-143887781D01*
X251200830Y-143869368D01*
X251191651Y-143849962D01*
X251184419Y-143829750D01*
X251179203Y-143808926D01*
X251176053Y-143787691D01*
X251175000Y-143766250D01*
X251175000Y-143253750D01*
X251176053Y-143232309D01*
X251179203Y-143211074D01*
X251184419Y-143190250D01*
X251191651Y-143170038D01*
X251200830Y-143150632D01*
X251211866Y-143132219D01*
X251224654Y-143114976D01*
X251239070Y-143099070D01*
X251254976Y-143084654D01*
X251272219Y-143071866D01*
X251290632Y-143060830D01*
X251310038Y-143051651D01*
X251330250Y-143044419D01*
X251351074Y-143039203D01*
X251372309Y-143036053D01*
X251393750Y-143035000D01*
X251831250Y-143035000D01*
X251852691Y-143036053D01*
G37*
G04 #@! TD.AperFunction*
G04 #@! TA.AperFunction,SMDPad,CuDef*
G36*
X251852691Y-130336053D02*
G01*
X251873926Y-130339203D01*
X251894750Y-130344419D01*
X251914962Y-130351651D01*
X251934368Y-130360830D01*
X251952781Y-130371866D01*
X251970024Y-130384654D01*
X251985930Y-130399070D01*
X252000346Y-130414976D01*
X252013134Y-130432219D01*
X252024170Y-130450632D01*
X252033349Y-130470038D01*
X252040581Y-130490250D01*
X252045797Y-130511074D01*
X252048947Y-130532309D01*
X252050000Y-130553750D01*
X252050000Y-131066250D01*
X252048947Y-131087691D01*
X252045797Y-131108926D01*
X252040581Y-131129750D01*
X252033349Y-131149962D01*
X252024170Y-131169368D01*
X252013134Y-131187781D01*
X252000346Y-131205024D01*
X251985930Y-131220930D01*
X251970024Y-131235346D01*
X251952781Y-131248134D01*
X251934368Y-131259170D01*
X251914962Y-131268349D01*
X251894750Y-131275581D01*
X251873926Y-131280797D01*
X251852691Y-131283947D01*
X251831250Y-131285000D01*
X251393750Y-131285000D01*
X251372309Y-131283947D01*
X251351074Y-131280797D01*
X251330250Y-131275581D01*
X251310038Y-131268349D01*
X251290632Y-131259170D01*
X251272219Y-131248134D01*
X251254976Y-131235346D01*
X251239070Y-131220930D01*
X251224654Y-131205024D01*
X251211866Y-131187781D01*
X251200830Y-131169368D01*
X251191651Y-131149962D01*
X251184419Y-131129750D01*
X251179203Y-131108926D01*
X251176053Y-131087691D01*
X251175000Y-131066250D01*
X251175000Y-130553750D01*
X251176053Y-130532309D01*
X251179203Y-130511074D01*
X251184419Y-130490250D01*
X251191651Y-130470038D01*
X251200830Y-130450632D01*
X251211866Y-130432219D01*
X251224654Y-130414976D01*
X251239070Y-130399070D01*
X251254976Y-130384654D01*
X251272219Y-130371866D01*
X251290632Y-130360830D01*
X251310038Y-130351651D01*
X251330250Y-130344419D01*
X251351074Y-130339203D01*
X251372309Y-130336053D01*
X251393750Y-130335000D01*
X251831250Y-130335000D01*
X251852691Y-130336053D01*
G37*
G04 #@! TD.AperFunction*
G04 #@! TA.AperFunction,SMDPad,CuDef*
G36*
X250277691Y-130336053D02*
G01*
X250298926Y-130339203D01*
X250319750Y-130344419D01*
X250339962Y-130351651D01*
X250359368Y-130360830D01*
X250377781Y-130371866D01*
X250395024Y-130384654D01*
X250410930Y-130399070D01*
X250425346Y-130414976D01*
X250438134Y-130432219D01*
X250449170Y-130450632D01*
X250458349Y-130470038D01*
X250465581Y-130490250D01*
X250470797Y-130511074D01*
X250473947Y-130532309D01*
X250475000Y-130553750D01*
X250475000Y-131066250D01*
X250473947Y-131087691D01*
X250470797Y-131108926D01*
X250465581Y-131129750D01*
X250458349Y-131149962D01*
X250449170Y-131169368D01*
X250438134Y-131187781D01*
X250425346Y-131205024D01*
X250410930Y-131220930D01*
X250395024Y-131235346D01*
X250377781Y-131248134D01*
X250359368Y-131259170D01*
X250339962Y-131268349D01*
X250319750Y-131275581D01*
X250298926Y-131280797D01*
X250277691Y-131283947D01*
X250256250Y-131285000D01*
X249818750Y-131285000D01*
X249797309Y-131283947D01*
X249776074Y-131280797D01*
X249755250Y-131275581D01*
X249735038Y-131268349D01*
X249715632Y-131259170D01*
X249697219Y-131248134D01*
X249679976Y-131235346D01*
X249664070Y-131220930D01*
X249649654Y-131205024D01*
X249636866Y-131187781D01*
X249625830Y-131169368D01*
X249616651Y-131149962D01*
X249609419Y-131129750D01*
X249604203Y-131108926D01*
X249601053Y-131087691D01*
X249600000Y-131066250D01*
X249600000Y-130553750D01*
X249601053Y-130532309D01*
X249604203Y-130511074D01*
X249609419Y-130490250D01*
X249616651Y-130470038D01*
X249625830Y-130450632D01*
X249636866Y-130432219D01*
X249649654Y-130414976D01*
X249664070Y-130399070D01*
X249679976Y-130384654D01*
X249697219Y-130371866D01*
X249715632Y-130360830D01*
X249735038Y-130351651D01*
X249755250Y-130344419D01*
X249776074Y-130339203D01*
X249797309Y-130336053D01*
X249818750Y-130335000D01*
X250256250Y-130335000D01*
X250277691Y-130336053D01*
G37*
G04 #@! TD.AperFunction*
G04 #@! TA.AperFunction,SMDPad,CuDef*
G36*
X250277691Y-132876053D02*
G01*
X250298926Y-132879203D01*
X250319750Y-132884419D01*
X250339962Y-132891651D01*
X250359368Y-132900830D01*
X250377781Y-132911866D01*
X250395024Y-132924654D01*
X250410930Y-132939070D01*
X250425346Y-132954976D01*
X250438134Y-132972219D01*
X250449170Y-132990632D01*
X250458349Y-133010038D01*
X250465581Y-133030250D01*
X250470797Y-133051074D01*
X250473947Y-133072309D01*
X250475000Y-133093750D01*
X250475000Y-133606250D01*
X250473947Y-133627691D01*
X250470797Y-133648926D01*
X250465581Y-133669750D01*
X250458349Y-133689962D01*
X250449170Y-133709368D01*
X250438134Y-133727781D01*
X250425346Y-133745024D01*
X250410930Y-133760930D01*
X250395024Y-133775346D01*
X250377781Y-133788134D01*
X250359368Y-133799170D01*
X250339962Y-133808349D01*
X250319750Y-133815581D01*
X250298926Y-133820797D01*
X250277691Y-133823947D01*
X250256250Y-133825000D01*
X249818750Y-133825000D01*
X249797309Y-133823947D01*
X249776074Y-133820797D01*
X249755250Y-133815581D01*
X249735038Y-133808349D01*
X249715632Y-133799170D01*
X249697219Y-133788134D01*
X249679976Y-133775346D01*
X249664070Y-133760930D01*
X249649654Y-133745024D01*
X249636866Y-133727781D01*
X249625830Y-133709368D01*
X249616651Y-133689962D01*
X249609419Y-133669750D01*
X249604203Y-133648926D01*
X249601053Y-133627691D01*
X249600000Y-133606250D01*
X249600000Y-133093750D01*
X249601053Y-133072309D01*
X249604203Y-133051074D01*
X249609419Y-133030250D01*
X249616651Y-133010038D01*
X249625830Y-132990632D01*
X249636866Y-132972219D01*
X249649654Y-132954976D01*
X249664070Y-132939070D01*
X249679976Y-132924654D01*
X249697219Y-132911866D01*
X249715632Y-132900830D01*
X249735038Y-132891651D01*
X249755250Y-132884419D01*
X249776074Y-132879203D01*
X249797309Y-132876053D01*
X249818750Y-132875000D01*
X250256250Y-132875000D01*
X250277691Y-132876053D01*
G37*
G04 #@! TD.AperFunction*
G04 #@! TA.AperFunction,SMDPad,CuDef*
G36*
X251852691Y-132876053D02*
G01*
X251873926Y-132879203D01*
X251894750Y-132884419D01*
X251914962Y-132891651D01*
X251934368Y-132900830D01*
X251952781Y-132911866D01*
X251970024Y-132924654D01*
X251985930Y-132939070D01*
X252000346Y-132954976D01*
X252013134Y-132972219D01*
X252024170Y-132990632D01*
X252033349Y-133010038D01*
X252040581Y-133030250D01*
X252045797Y-133051074D01*
X252048947Y-133072309D01*
X252050000Y-133093750D01*
X252050000Y-133606250D01*
X252048947Y-133627691D01*
X252045797Y-133648926D01*
X252040581Y-133669750D01*
X252033349Y-133689962D01*
X252024170Y-133709368D01*
X252013134Y-133727781D01*
X252000346Y-133745024D01*
X251985930Y-133760930D01*
X251970024Y-133775346D01*
X251952781Y-133788134D01*
X251934368Y-133799170D01*
X251914962Y-133808349D01*
X251894750Y-133815581D01*
X251873926Y-133820797D01*
X251852691Y-133823947D01*
X251831250Y-133825000D01*
X251393750Y-133825000D01*
X251372309Y-133823947D01*
X251351074Y-133820797D01*
X251330250Y-133815581D01*
X251310038Y-133808349D01*
X251290632Y-133799170D01*
X251272219Y-133788134D01*
X251254976Y-133775346D01*
X251239070Y-133760930D01*
X251224654Y-133745024D01*
X251211866Y-133727781D01*
X251200830Y-133709368D01*
X251191651Y-133689962D01*
X251184419Y-133669750D01*
X251179203Y-133648926D01*
X251176053Y-133627691D01*
X251175000Y-133606250D01*
X251175000Y-133093750D01*
X251176053Y-133072309D01*
X251179203Y-133051074D01*
X251184419Y-133030250D01*
X251191651Y-133010038D01*
X251200830Y-132990632D01*
X251211866Y-132972219D01*
X251224654Y-132954976D01*
X251239070Y-132939070D01*
X251254976Y-132924654D01*
X251272219Y-132911866D01*
X251290632Y-132900830D01*
X251310038Y-132891651D01*
X251330250Y-132884419D01*
X251351074Y-132879203D01*
X251372309Y-132876053D01*
X251393750Y-132875000D01*
X251831250Y-132875000D01*
X251852691Y-132876053D01*
G37*
G04 #@! TD.AperFunction*
G04 #@! TA.AperFunction,SMDPad,CuDef*
G36*
X251852691Y-120176053D02*
G01*
X251873926Y-120179203D01*
X251894750Y-120184419D01*
X251914962Y-120191651D01*
X251934368Y-120200830D01*
X251952781Y-120211866D01*
X251970024Y-120224654D01*
X251985930Y-120239070D01*
X252000346Y-120254976D01*
X252013134Y-120272219D01*
X252024170Y-120290632D01*
X252033349Y-120310038D01*
X252040581Y-120330250D01*
X252045797Y-120351074D01*
X252048947Y-120372309D01*
X252050000Y-120393750D01*
X252050000Y-120906250D01*
X252048947Y-120927691D01*
X252045797Y-120948926D01*
X252040581Y-120969750D01*
X252033349Y-120989962D01*
X252024170Y-121009368D01*
X252013134Y-121027781D01*
X252000346Y-121045024D01*
X251985930Y-121060930D01*
X251970024Y-121075346D01*
X251952781Y-121088134D01*
X251934368Y-121099170D01*
X251914962Y-121108349D01*
X251894750Y-121115581D01*
X251873926Y-121120797D01*
X251852691Y-121123947D01*
X251831250Y-121125000D01*
X251393750Y-121125000D01*
X251372309Y-121123947D01*
X251351074Y-121120797D01*
X251330250Y-121115581D01*
X251310038Y-121108349D01*
X251290632Y-121099170D01*
X251272219Y-121088134D01*
X251254976Y-121075346D01*
X251239070Y-121060930D01*
X251224654Y-121045024D01*
X251211866Y-121027781D01*
X251200830Y-121009368D01*
X251191651Y-120989962D01*
X251184419Y-120969750D01*
X251179203Y-120948926D01*
X251176053Y-120927691D01*
X251175000Y-120906250D01*
X251175000Y-120393750D01*
X251176053Y-120372309D01*
X251179203Y-120351074D01*
X251184419Y-120330250D01*
X251191651Y-120310038D01*
X251200830Y-120290632D01*
X251211866Y-120272219D01*
X251224654Y-120254976D01*
X251239070Y-120239070D01*
X251254976Y-120224654D01*
X251272219Y-120211866D01*
X251290632Y-120200830D01*
X251310038Y-120191651D01*
X251330250Y-120184419D01*
X251351074Y-120179203D01*
X251372309Y-120176053D01*
X251393750Y-120175000D01*
X251831250Y-120175000D01*
X251852691Y-120176053D01*
G37*
G04 #@! TD.AperFunction*
G04 #@! TA.AperFunction,SMDPad,CuDef*
G36*
X250277691Y-120176053D02*
G01*
X250298926Y-120179203D01*
X250319750Y-120184419D01*
X250339962Y-120191651D01*
X250359368Y-120200830D01*
X250377781Y-120211866D01*
X250395024Y-120224654D01*
X250410930Y-120239070D01*
X250425346Y-120254976D01*
X250438134Y-120272219D01*
X250449170Y-120290632D01*
X250458349Y-120310038D01*
X250465581Y-120330250D01*
X250470797Y-120351074D01*
X250473947Y-120372309D01*
X250475000Y-120393750D01*
X250475000Y-120906250D01*
X250473947Y-120927691D01*
X250470797Y-120948926D01*
X250465581Y-120969750D01*
X250458349Y-120989962D01*
X250449170Y-121009368D01*
X250438134Y-121027781D01*
X250425346Y-121045024D01*
X250410930Y-121060930D01*
X250395024Y-121075346D01*
X250377781Y-121088134D01*
X250359368Y-121099170D01*
X250339962Y-121108349D01*
X250319750Y-121115581D01*
X250298926Y-121120797D01*
X250277691Y-121123947D01*
X250256250Y-121125000D01*
X249818750Y-121125000D01*
X249797309Y-121123947D01*
X249776074Y-121120797D01*
X249755250Y-121115581D01*
X249735038Y-121108349D01*
X249715632Y-121099170D01*
X249697219Y-121088134D01*
X249679976Y-121075346D01*
X249664070Y-121060930D01*
X249649654Y-121045024D01*
X249636866Y-121027781D01*
X249625830Y-121009368D01*
X249616651Y-120989962D01*
X249609419Y-120969750D01*
X249604203Y-120948926D01*
X249601053Y-120927691D01*
X249600000Y-120906250D01*
X249600000Y-120393750D01*
X249601053Y-120372309D01*
X249604203Y-120351074D01*
X249609419Y-120330250D01*
X249616651Y-120310038D01*
X249625830Y-120290632D01*
X249636866Y-120272219D01*
X249649654Y-120254976D01*
X249664070Y-120239070D01*
X249679976Y-120224654D01*
X249697219Y-120211866D01*
X249715632Y-120200830D01*
X249735038Y-120191651D01*
X249755250Y-120184419D01*
X249776074Y-120179203D01*
X249797309Y-120176053D01*
X249818750Y-120175000D01*
X250256250Y-120175000D01*
X250277691Y-120176053D01*
G37*
G04 #@! TD.AperFunction*
G04 #@! TA.AperFunction,SMDPad,CuDef*
G36*
X250277691Y-122716053D02*
G01*
X250298926Y-122719203D01*
X250319750Y-122724419D01*
X250339962Y-122731651D01*
X250359368Y-122740830D01*
X250377781Y-122751866D01*
X250395024Y-122764654D01*
X250410930Y-122779070D01*
X250425346Y-122794976D01*
X250438134Y-122812219D01*
X250449170Y-122830632D01*
X250458349Y-122850038D01*
X250465581Y-122870250D01*
X250470797Y-122891074D01*
X250473947Y-122912309D01*
X250475000Y-122933750D01*
X250475000Y-123446250D01*
X250473947Y-123467691D01*
X250470797Y-123488926D01*
X250465581Y-123509750D01*
X250458349Y-123529962D01*
X250449170Y-123549368D01*
X250438134Y-123567781D01*
X250425346Y-123585024D01*
X250410930Y-123600930D01*
X250395024Y-123615346D01*
X250377781Y-123628134D01*
X250359368Y-123639170D01*
X250339962Y-123648349D01*
X250319750Y-123655581D01*
X250298926Y-123660797D01*
X250277691Y-123663947D01*
X250256250Y-123665000D01*
X249818750Y-123665000D01*
X249797309Y-123663947D01*
X249776074Y-123660797D01*
X249755250Y-123655581D01*
X249735038Y-123648349D01*
X249715632Y-123639170D01*
X249697219Y-123628134D01*
X249679976Y-123615346D01*
X249664070Y-123600930D01*
X249649654Y-123585024D01*
X249636866Y-123567781D01*
X249625830Y-123549368D01*
X249616651Y-123529962D01*
X249609419Y-123509750D01*
X249604203Y-123488926D01*
X249601053Y-123467691D01*
X249600000Y-123446250D01*
X249600000Y-122933750D01*
X249601053Y-122912309D01*
X249604203Y-122891074D01*
X249609419Y-122870250D01*
X249616651Y-122850038D01*
X249625830Y-122830632D01*
X249636866Y-122812219D01*
X249649654Y-122794976D01*
X249664070Y-122779070D01*
X249679976Y-122764654D01*
X249697219Y-122751866D01*
X249715632Y-122740830D01*
X249735038Y-122731651D01*
X249755250Y-122724419D01*
X249776074Y-122719203D01*
X249797309Y-122716053D01*
X249818750Y-122715000D01*
X250256250Y-122715000D01*
X250277691Y-122716053D01*
G37*
G04 #@! TD.AperFunction*
G04 #@! TA.AperFunction,SMDPad,CuDef*
G36*
X251852691Y-122716053D02*
G01*
X251873926Y-122719203D01*
X251894750Y-122724419D01*
X251914962Y-122731651D01*
X251934368Y-122740830D01*
X251952781Y-122751866D01*
X251970024Y-122764654D01*
X251985930Y-122779070D01*
X252000346Y-122794976D01*
X252013134Y-122812219D01*
X252024170Y-122830632D01*
X252033349Y-122850038D01*
X252040581Y-122870250D01*
X252045797Y-122891074D01*
X252048947Y-122912309D01*
X252050000Y-122933750D01*
X252050000Y-123446250D01*
X252048947Y-123467691D01*
X252045797Y-123488926D01*
X252040581Y-123509750D01*
X252033349Y-123529962D01*
X252024170Y-123549368D01*
X252013134Y-123567781D01*
X252000346Y-123585024D01*
X251985930Y-123600930D01*
X251970024Y-123615346D01*
X251952781Y-123628134D01*
X251934368Y-123639170D01*
X251914962Y-123648349D01*
X251894750Y-123655581D01*
X251873926Y-123660797D01*
X251852691Y-123663947D01*
X251831250Y-123665000D01*
X251393750Y-123665000D01*
X251372309Y-123663947D01*
X251351074Y-123660797D01*
X251330250Y-123655581D01*
X251310038Y-123648349D01*
X251290632Y-123639170D01*
X251272219Y-123628134D01*
X251254976Y-123615346D01*
X251239070Y-123600930D01*
X251224654Y-123585024D01*
X251211866Y-123567781D01*
X251200830Y-123549368D01*
X251191651Y-123529962D01*
X251184419Y-123509750D01*
X251179203Y-123488926D01*
X251176053Y-123467691D01*
X251175000Y-123446250D01*
X251175000Y-122933750D01*
X251176053Y-122912309D01*
X251179203Y-122891074D01*
X251184419Y-122870250D01*
X251191651Y-122850038D01*
X251200830Y-122830632D01*
X251211866Y-122812219D01*
X251224654Y-122794976D01*
X251239070Y-122779070D01*
X251254976Y-122764654D01*
X251272219Y-122751866D01*
X251290632Y-122740830D01*
X251310038Y-122731651D01*
X251330250Y-122724419D01*
X251351074Y-122719203D01*
X251372309Y-122716053D01*
X251393750Y-122715000D01*
X251831250Y-122715000D01*
X251852691Y-122716053D01*
G37*
G04 #@! TD.AperFunction*
G04 #@! TA.AperFunction,SMDPad,CuDef*
G36*
X251852691Y-110016053D02*
G01*
X251873926Y-110019203D01*
X251894750Y-110024419D01*
X251914962Y-110031651D01*
X251934368Y-110040830D01*
X251952781Y-110051866D01*
X251970024Y-110064654D01*
X251985930Y-110079070D01*
X252000346Y-110094976D01*
X252013134Y-110112219D01*
X252024170Y-110130632D01*
X252033349Y-110150038D01*
X252040581Y-110170250D01*
X252045797Y-110191074D01*
X252048947Y-110212309D01*
X252050000Y-110233750D01*
X252050000Y-110746250D01*
X252048947Y-110767691D01*
X252045797Y-110788926D01*
X252040581Y-110809750D01*
X252033349Y-110829962D01*
X252024170Y-110849368D01*
X252013134Y-110867781D01*
X252000346Y-110885024D01*
X251985930Y-110900930D01*
X251970024Y-110915346D01*
X251952781Y-110928134D01*
X251934368Y-110939170D01*
X251914962Y-110948349D01*
X251894750Y-110955581D01*
X251873926Y-110960797D01*
X251852691Y-110963947D01*
X251831250Y-110965000D01*
X251393750Y-110965000D01*
X251372309Y-110963947D01*
X251351074Y-110960797D01*
X251330250Y-110955581D01*
X251310038Y-110948349D01*
X251290632Y-110939170D01*
X251272219Y-110928134D01*
X251254976Y-110915346D01*
X251239070Y-110900930D01*
X251224654Y-110885024D01*
X251211866Y-110867781D01*
X251200830Y-110849368D01*
X251191651Y-110829962D01*
X251184419Y-110809750D01*
X251179203Y-110788926D01*
X251176053Y-110767691D01*
X251175000Y-110746250D01*
X251175000Y-110233750D01*
X251176053Y-110212309D01*
X251179203Y-110191074D01*
X251184419Y-110170250D01*
X251191651Y-110150038D01*
X251200830Y-110130632D01*
X251211866Y-110112219D01*
X251224654Y-110094976D01*
X251239070Y-110079070D01*
X251254976Y-110064654D01*
X251272219Y-110051866D01*
X251290632Y-110040830D01*
X251310038Y-110031651D01*
X251330250Y-110024419D01*
X251351074Y-110019203D01*
X251372309Y-110016053D01*
X251393750Y-110015000D01*
X251831250Y-110015000D01*
X251852691Y-110016053D01*
G37*
G04 #@! TD.AperFunction*
G04 #@! TA.AperFunction,SMDPad,CuDef*
G36*
X250277691Y-110016053D02*
G01*
X250298926Y-110019203D01*
X250319750Y-110024419D01*
X250339962Y-110031651D01*
X250359368Y-110040830D01*
X250377781Y-110051866D01*
X250395024Y-110064654D01*
X250410930Y-110079070D01*
X250425346Y-110094976D01*
X250438134Y-110112219D01*
X250449170Y-110130632D01*
X250458349Y-110150038D01*
X250465581Y-110170250D01*
X250470797Y-110191074D01*
X250473947Y-110212309D01*
X250475000Y-110233750D01*
X250475000Y-110746250D01*
X250473947Y-110767691D01*
X250470797Y-110788926D01*
X250465581Y-110809750D01*
X250458349Y-110829962D01*
X250449170Y-110849368D01*
X250438134Y-110867781D01*
X250425346Y-110885024D01*
X250410930Y-110900930D01*
X250395024Y-110915346D01*
X250377781Y-110928134D01*
X250359368Y-110939170D01*
X250339962Y-110948349D01*
X250319750Y-110955581D01*
X250298926Y-110960797D01*
X250277691Y-110963947D01*
X250256250Y-110965000D01*
X249818750Y-110965000D01*
X249797309Y-110963947D01*
X249776074Y-110960797D01*
X249755250Y-110955581D01*
X249735038Y-110948349D01*
X249715632Y-110939170D01*
X249697219Y-110928134D01*
X249679976Y-110915346D01*
X249664070Y-110900930D01*
X249649654Y-110885024D01*
X249636866Y-110867781D01*
X249625830Y-110849368D01*
X249616651Y-110829962D01*
X249609419Y-110809750D01*
X249604203Y-110788926D01*
X249601053Y-110767691D01*
X249600000Y-110746250D01*
X249600000Y-110233750D01*
X249601053Y-110212309D01*
X249604203Y-110191074D01*
X249609419Y-110170250D01*
X249616651Y-110150038D01*
X249625830Y-110130632D01*
X249636866Y-110112219D01*
X249649654Y-110094976D01*
X249664070Y-110079070D01*
X249679976Y-110064654D01*
X249697219Y-110051866D01*
X249715632Y-110040830D01*
X249735038Y-110031651D01*
X249755250Y-110024419D01*
X249776074Y-110019203D01*
X249797309Y-110016053D01*
X249818750Y-110015000D01*
X250256250Y-110015000D01*
X250277691Y-110016053D01*
G37*
G04 #@! TD.AperFunction*
G04 #@! TA.AperFunction,SMDPad,CuDef*
G36*
X250277691Y-112556053D02*
G01*
X250298926Y-112559203D01*
X250319750Y-112564419D01*
X250339962Y-112571651D01*
X250359368Y-112580830D01*
X250377781Y-112591866D01*
X250395024Y-112604654D01*
X250410930Y-112619070D01*
X250425346Y-112634976D01*
X250438134Y-112652219D01*
X250449170Y-112670632D01*
X250458349Y-112690038D01*
X250465581Y-112710250D01*
X250470797Y-112731074D01*
X250473947Y-112752309D01*
X250475000Y-112773750D01*
X250475000Y-113286250D01*
X250473947Y-113307691D01*
X250470797Y-113328926D01*
X250465581Y-113349750D01*
X250458349Y-113369962D01*
X250449170Y-113389368D01*
X250438134Y-113407781D01*
X250425346Y-113425024D01*
X250410930Y-113440930D01*
X250395024Y-113455346D01*
X250377781Y-113468134D01*
X250359368Y-113479170D01*
X250339962Y-113488349D01*
X250319750Y-113495581D01*
X250298926Y-113500797D01*
X250277691Y-113503947D01*
X250256250Y-113505000D01*
X249818750Y-113505000D01*
X249797309Y-113503947D01*
X249776074Y-113500797D01*
X249755250Y-113495581D01*
X249735038Y-113488349D01*
X249715632Y-113479170D01*
X249697219Y-113468134D01*
X249679976Y-113455346D01*
X249664070Y-113440930D01*
X249649654Y-113425024D01*
X249636866Y-113407781D01*
X249625830Y-113389368D01*
X249616651Y-113369962D01*
X249609419Y-113349750D01*
X249604203Y-113328926D01*
X249601053Y-113307691D01*
X249600000Y-113286250D01*
X249600000Y-112773750D01*
X249601053Y-112752309D01*
X249604203Y-112731074D01*
X249609419Y-112710250D01*
X249616651Y-112690038D01*
X249625830Y-112670632D01*
X249636866Y-112652219D01*
X249649654Y-112634976D01*
X249664070Y-112619070D01*
X249679976Y-112604654D01*
X249697219Y-112591866D01*
X249715632Y-112580830D01*
X249735038Y-112571651D01*
X249755250Y-112564419D01*
X249776074Y-112559203D01*
X249797309Y-112556053D01*
X249818750Y-112555000D01*
X250256250Y-112555000D01*
X250277691Y-112556053D01*
G37*
G04 #@! TD.AperFunction*
G04 #@! TA.AperFunction,SMDPad,CuDef*
G36*
X251852691Y-112556053D02*
G01*
X251873926Y-112559203D01*
X251894750Y-112564419D01*
X251914962Y-112571651D01*
X251934368Y-112580830D01*
X251952781Y-112591866D01*
X251970024Y-112604654D01*
X251985930Y-112619070D01*
X252000346Y-112634976D01*
X252013134Y-112652219D01*
X252024170Y-112670632D01*
X252033349Y-112690038D01*
X252040581Y-112710250D01*
X252045797Y-112731074D01*
X252048947Y-112752309D01*
X252050000Y-112773750D01*
X252050000Y-113286250D01*
X252048947Y-113307691D01*
X252045797Y-113328926D01*
X252040581Y-113349750D01*
X252033349Y-113369962D01*
X252024170Y-113389368D01*
X252013134Y-113407781D01*
X252000346Y-113425024D01*
X251985930Y-113440930D01*
X251970024Y-113455346D01*
X251952781Y-113468134D01*
X251934368Y-113479170D01*
X251914962Y-113488349D01*
X251894750Y-113495581D01*
X251873926Y-113500797D01*
X251852691Y-113503947D01*
X251831250Y-113505000D01*
X251393750Y-113505000D01*
X251372309Y-113503947D01*
X251351074Y-113500797D01*
X251330250Y-113495581D01*
X251310038Y-113488349D01*
X251290632Y-113479170D01*
X251272219Y-113468134D01*
X251254976Y-113455346D01*
X251239070Y-113440930D01*
X251224654Y-113425024D01*
X251211866Y-113407781D01*
X251200830Y-113389368D01*
X251191651Y-113369962D01*
X251184419Y-113349750D01*
X251179203Y-113328926D01*
X251176053Y-113307691D01*
X251175000Y-113286250D01*
X251175000Y-112773750D01*
X251176053Y-112752309D01*
X251179203Y-112731074D01*
X251184419Y-112710250D01*
X251191651Y-112690038D01*
X251200830Y-112670632D01*
X251211866Y-112652219D01*
X251224654Y-112634976D01*
X251239070Y-112619070D01*
X251254976Y-112604654D01*
X251272219Y-112591866D01*
X251290632Y-112580830D01*
X251310038Y-112571651D01*
X251330250Y-112564419D01*
X251351074Y-112559203D01*
X251372309Y-112556053D01*
X251393750Y-112555000D01*
X251831250Y-112555000D01*
X251852691Y-112556053D01*
G37*
G04 #@! TD.AperFunction*
D17*
X161290000Y-129540000D03*
X160020000Y-116205000D03*
X226695000Y-137795000D03*
X165735000Y-137160000D03*
X189865000Y-144145000D03*
X191094999Y-137200001D03*
X235585000Y-124460000D03*
X237490000Y-127000000D03*
X156210000Y-124460000D03*
X158750000Y-139700000D03*
X240665000Y-140970004D03*
X174625000Y-144780000D03*
X163195000Y-148590000D03*
X165735000Y-148590000D03*
X168275000Y-149225000D03*
X170815000Y-147955000D03*
X173990000Y-147320000D03*
X231775000Y-114300000D03*
X177165000Y-114300000D03*
X178435000Y-120650000D03*
X238124996Y-121920000D03*
X181610000Y-120015000D03*
X240665000Y-121920000D03*
X184785000Y-119380000D03*
X243205000Y-121920008D03*
X234315000Y-121920000D03*
X188595000Y-121920000D03*
X192405000Y-136525000D03*
X233045000Y-124460000D03*
X193675000Y-123825000D03*
X206375000Y-121285000D03*
X206375000Y-139065000D03*
X202565000Y-139065000D03*
X235585000Y-121920000D03*
X225425000Y-125730000D03*
X210185000Y-135255000D03*
X225425000Y-135255000D03*
X167005000Y-114935000D03*
X173355000Y-114935000D03*
X212725000Y-116840000D03*
X212725000Y-135890006D03*
X168274994Y-135890000D03*
X227965000Y-116840000D03*
X217805000Y-134620000D03*
X186055004Y-134620004D03*
X229235000Y-113665000D03*
X220980000Y-113665000D03*
X211455000Y-143510000D03*
X196215000Y-143510000D03*
X231140000Y-143510000D03*
X222885000Y-143510000D03*
X229235000Y-140970000D03*
X198755000Y-140970000D03*
X225425000Y-140970000D03*
X226060000Y-144780000D03*
X203835000Y-144145000D03*
X234315000Y-144145000D03*
X226695000Y-144145000D03*
X227330000Y-140335000D03*
X200660000Y-140335000D03*
X230505000Y-142875000D03*
X235585000Y-142875000D03*
X197485000Y-142875000D03*
X238760000Y-142240000D03*
X233045000Y-142240000D03*
X194945000Y-142240000D03*
X241935000Y-141605000D03*
X235585000Y-141605000D03*
X192405000Y-141605000D03*
X224790000Y-132080000D03*
X172085000Y-115570000D03*
X168275000Y-115570000D03*
X248285000Y-130810000D03*
X172085000Y-125730000D03*
X222250000Y-130810000D03*
X245745000Y-131445000D03*
X168275000Y-125730000D03*
X219710000Y-131445000D03*
X243205000Y-132715000D03*
X170815000Y-132715000D03*
X217170000Y-132715000D03*
X165735000Y-125095000D03*
X214630000Y-129540000D03*
X247015000Y-130175000D03*
X212090000Y-130175000D03*
X235585000Y-130175000D03*
X244475000Y-133350000D03*
X209550000Y-133350000D03*
X231775000Y-133350000D03*
X241935000Y-133985000D03*
X207010000Y-133985000D03*
X236855000Y-123190000D03*
X189865000Y-123190000D03*
X239395000Y-122555000D03*
X191135000Y-122555000D03*
X240665000Y-134620000D03*
X222885000Y-134620000D03*
X241935000Y-123825000D03*
X215900000Y-123825000D03*
D18*
X251612500Y-140970000D02*
X251612500Y-143510000D01*
X251612500Y-143510000D02*
X251612500Y-145262500D01*
X250825000Y-146050000D02*
X247015000Y-146050000D01*
X251612500Y-145262500D02*
X250825000Y-146050000D01*
X251612500Y-130810000D02*
X251612500Y-133350000D01*
X251612500Y-133350000D02*
X251612500Y-135102500D01*
X250825000Y-135890000D02*
X247015000Y-135890000D01*
X251612500Y-135102500D02*
X250825000Y-135890000D01*
X251612500Y-120650000D02*
X251612500Y-123190000D01*
X251612500Y-123190000D02*
X251612500Y-124942500D01*
X250825000Y-125730000D02*
X247015000Y-125730000D01*
X251612500Y-124942500D02*
X250825000Y-125730000D01*
X251612500Y-110490000D02*
X251612500Y-113030000D01*
X251612500Y-113030000D02*
X251612500Y-114782500D01*
X250825000Y-115570000D02*
X247015000Y-115570000D01*
X251612500Y-114782500D02*
X250825000Y-115570000D01*
X161137500Y-133985000D02*
X161137500Y-130810000D01*
X161137500Y-130810000D02*
X161137500Y-129692500D01*
X161137500Y-129692500D02*
X161290000Y-129540000D01*
X161137500Y-113665000D02*
X161137500Y-116205000D01*
X161137500Y-116205000D02*
X160020000Y-116205000D01*
X198882000Y-151612600D02*
X198882000Y-149072600D01*
X216535000Y-146050000D02*
X215265000Y-147320000D01*
X215265000Y-147320000D02*
X198755000Y-147320000D01*
X198755000Y-148945600D02*
X198882000Y-149072600D01*
X198755000Y-147320000D02*
X198755000Y-148945600D01*
X229235000Y-138430000D02*
X227330000Y-138430000D01*
X227330000Y-138430000D02*
X226695000Y-137795000D01*
X226695000Y-137795000D02*
X226060000Y-137160000D01*
X226060000Y-137160000D02*
X208915000Y-137160000D01*
X208915000Y-137160000D02*
X208915000Y-138430000D01*
X165775001Y-137200001D02*
X165735000Y-137160000D01*
X208915000Y-137160000D02*
X208874999Y-137200001D01*
X198755000Y-147320000D02*
X195580000Y-147320000D01*
X195580000Y-147320000D02*
X194945000Y-146685000D01*
X194945000Y-146685000D02*
X194945000Y-145580998D01*
X194945000Y-145580998D02*
X194945000Y-144780000D01*
X194945000Y-144780000D02*
X194310000Y-144145000D01*
X194310000Y-144145000D02*
X189865000Y-144145000D01*
X208874999Y-137200001D02*
X191094999Y-137200001D01*
X191094999Y-137200001D02*
X165775001Y-137200001D01*
X250037500Y-143510000D02*
X250037500Y-140970000D01*
X246380000Y-140970000D02*
X250037500Y-140970000D01*
X231140000Y-140335000D02*
X235585000Y-140335000D01*
X229235000Y-138430000D02*
X231140000Y-140335000D01*
X235585000Y-140335000D02*
X235624997Y-140295003D01*
X235624997Y-140295003D02*
X245705003Y-140295003D01*
X245705003Y-140295003D02*
X246380000Y-140970000D01*
X235585000Y-124460000D02*
X237490000Y-124460000D01*
X238219999Y-125189999D02*
X238219999Y-126459999D01*
X237490000Y-124460000D02*
X238219999Y-125189999D01*
X238854999Y-127094999D02*
X249649999Y-127094999D01*
X238219999Y-126459999D02*
X238854999Y-127094999D01*
X250037500Y-127482500D02*
X250037500Y-130810000D01*
X249649999Y-127094999D02*
X250037500Y-127482500D01*
X250037500Y-130810000D02*
X250037500Y-133350000D01*
X250037500Y-120650000D02*
X250037500Y-123190000D01*
X229235000Y-118110000D02*
X230505000Y-116840000D01*
X230505000Y-116840000D02*
X234950000Y-116840000D01*
X237155990Y-120149992D02*
X241434992Y-120149992D01*
X235679999Y-118674001D02*
X237155990Y-120149992D01*
X234950000Y-116840000D02*
X235679999Y-117569999D01*
X235679999Y-117569999D02*
X235679999Y-118674001D01*
X241935000Y-120650000D02*
X250037500Y-120650000D01*
X241434992Y-120149992D02*
X241935000Y-120650000D01*
X250037500Y-113030000D02*
X250037500Y-110490000D01*
X231775000Y-110490000D02*
X229235000Y-107950000D01*
X250037500Y-110490000D02*
X231775000Y-110490000D01*
X165735000Y-130810000D02*
X162712500Y-130810000D01*
X162712500Y-130810000D02*
X162712500Y-133985000D01*
X162712500Y-116205000D02*
X162712500Y-113665000D01*
X162712500Y-112877500D02*
X162712500Y-113665000D01*
X163195000Y-112395000D02*
X162712500Y-112877500D01*
X165735000Y-112395000D02*
X163195000Y-112395000D01*
D19*
X237490000Y-127000000D02*
X210820000Y-127000000D01*
X210820000Y-127000000D02*
X208280000Y-124460000D01*
X208280000Y-124460000D02*
X156210000Y-124460000D01*
X230505004Y-140970004D02*
X240665000Y-140970004D01*
X158750000Y-139700000D02*
X229235000Y-139700000D01*
X229235000Y-139700000D02*
X230505004Y-140970004D01*
X160782000Y-149733000D02*
X160782000Y-151612600D01*
X164819998Y-144780000D02*
X174625000Y-144780000D01*
X160782000Y-148817998D02*
X160782000Y-151612600D01*
X164819998Y-144780000D02*
X160782000Y-148817998D01*
X163322000Y-148717000D02*
X163322000Y-151612600D01*
X163195000Y-148590000D02*
X163322000Y-148717000D01*
X165862000Y-151612600D02*
X165735000Y-151485600D01*
X165735000Y-151485600D02*
X165735000Y-148590000D01*
X168275000Y-151485600D02*
X168275000Y-149225000D01*
X168402000Y-151612600D02*
X168275000Y-151485600D01*
X170815000Y-151485600D02*
X170815000Y-147955000D01*
X170942000Y-151612600D02*
X170815000Y-151485600D01*
X173355000Y-151485600D02*
X173482000Y-151612600D01*
X173482000Y-147828000D02*
X173990000Y-147320000D01*
X173482000Y-151612600D02*
X173482000Y-147828000D01*
X176022000Y-146177000D02*
X175895000Y-146050000D01*
X176022000Y-151612600D02*
X176022000Y-146177000D01*
X231775000Y-114300000D02*
X177165000Y-114300000D01*
X178562000Y-146177000D02*
X178435000Y-146050000D01*
X178562000Y-151612600D02*
X178562000Y-146177000D01*
X236854998Y-121920000D02*
X238124996Y-121920000D01*
X178435000Y-120650000D02*
X235584998Y-120650000D01*
X235584998Y-120650000D02*
X236854998Y-121920000D01*
X181102000Y-146177000D02*
X180975000Y-146050000D01*
X181102000Y-151612600D02*
X181102000Y-146177000D01*
X239395000Y-121920000D02*
X240665000Y-121920000D01*
X239395000Y-121920000D02*
X238760000Y-121285000D01*
X238760000Y-121285000D02*
X236856408Y-121285000D01*
X236856408Y-121285000D02*
X235586408Y-120015000D01*
X235586408Y-120015000D02*
X181610000Y-120015000D01*
X183642000Y-146177000D02*
X183515000Y-146050000D01*
X183642000Y-151612600D02*
X183642000Y-146177000D01*
X241935008Y-121920008D02*
X243205000Y-121920008D01*
X241935008Y-121920008D02*
X241300000Y-121285000D01*
X241300000Y-121285000D02*
X239396410Y-121285000D01*
X239396410Y-121285000D02*
X238761410Y-120650000D01*
X238761410Y-120650000D02*
X236857818Y-120650000D01*
X236857818Y-120650000D02*
X235587818Y-119380000D01*
X235587818Y-119380000D02*
X184785000Y-119380000D01*
X186182000Y-146177000D02*
X186055000Y-146050000D01*
X186182000Y-151612600D02*
X186182000Y-146177000D01*
X188722000Y-146177000D02*
X188595000Y-146050000D01*
X188722000Y-151612600D02*
X188722000Y-146177000D01*
X234315000Y-121920000D02*
X188595000Y-121920000D01*
X191262000Y-146177000D02*
X191135000Y-146050000D01*
X191262000Y-151612600D02*
X191262000Y-146177000D01*
X227965000Y-137160000D02*
X235585000Y-137160000D01*
X192405000Y-136525000D02*
X227330000Y-136525000D01*
X235585000Y-137160000D02*
X236855000Y-138430000D01*
X227330000Y-136525000D02*
X227965000Y-137160000D01*
X193802000Y-146177000D02*
X193675000Y-146050000D01*
X193802000Y-151612600D02*
X193802000Y-146177000D01*
X193675000Y-123825000D02*
X214630000Y-123825000D01*
X215265000Y-124460000D02*
X233045000Y-124460000D01*
X214630000Y-123825000D02*
X215265000Y-124460000D01*
X206375000Y-139065000D02*
X202565000Y-139065000D01*
X234950000Y-121285000D02*
X235585000Y-121920000D01*
X206375000Y-121285000D02*
X234950000Y-121285000D01*
X225425000Y-125730000D02*
X229235000Y-125730000D01*
X210185000Y-135255000D02*
X225425000Y-135255000D01*
X167005000Y-114935000D02*
X173355000Y-114935000D01*
X212725000Y-135890006D02*
X212724994Y-135890000D01*
X212724994Y-135890000D02*
X168274994Y-135890000D01*
X227965000Y-116840000D02*
X212725000Y-116840000D01*
X186055008Y-134620000D02*
X186055004Y-134620004D01*
X217805000Y-134620000D02*
X186055008Y-134620000D01*
X229235000Y-113665000D02*
X220980000Y-113665000D01*
X211455000Y-143510000D02*
X196215000Y-143510000D01*
X211455000Y-143510000D02*
X222885000Y-143510000D01*
X222885000Y-143510000D02*
X231140000Y-143510000D01*
X229235000Y-140970000D02*
X225425000Y-140970000D01*
X225425000Y-140970000D02*
X198755000Y-140970000D01*
X231775000Y-146050000D02*
X231775000Y-144780000D01*
X231775000Y-144780000D02*
X201295000Y-144780000D01*
X201295000Y-144780000D02*
X201295000Y-146050000D01*
X234315000Y-144145000D02*
X226695000Y-144145000D01*
X226695000Y-144145000D02*
X203835000Y-144145000D01*
X227330000Y-140335000D02*
X200660000Y-140335000D01*
X230505000Y-142875000D02*
X235585000Y-142875000D01*
X230505000Y-142875000D02*
X197485000Y-142875000D01*
X238760000Y-142240000D02*
X233045000Y-142240000D01*
X233045000Y-142240000D02*
X194945000Y-142240000D01*
X241935000Y-141605000D02*
X235585000Y-141605000D01*
X235585000Y-141605000D02*
X192405000Y-141605000D01*
X170815000Y-128270000D02*
X173355000Y-130810000D01*
X170815000Y-127635000D02*
X170815000Y-128270000D01*
X244475000Y-138430000D02*
X243205000Y-137160000D01*
X245100001Y-133650001D02*
X245100001Y-133049999D01*
X245100001Y-133049999D02*
X244130002Y-132080000D01*
X243205000Y-137160000D02*
X243205000Y-135545002D01*
X243205000Y-135545002D02*
X245100001Y-133650001D01*
X244130002Y-132080000D02*
X208280000Y-132080000D01*
X174480001Y-129684999D02*
X173355000Y-130810000D01*
X205884999Y-129684999D02*
X174480001Y-129684999D01*
X208280000Y-132080000D02*
X205884999Y-129684999D01*
X172085000Y-115570000D02*
X168275000Y-115570000D01*
X173115002Y-125730000D02*
X172085000Y-125730000D01*
X174480001Y-127094999D02*
X173115002Y-125730000D01*
X175139979Y-128784979D02*
X174480001Y-128125001D01*
X206257799Y-128784979D02*
X175139979Y-128784979D01*
X174480001Y-128125001D02*
X174480001Y-127094999D01*
X208282820Y-130810000D02*
X206257799Y-128784979D01*
X248285000Y-130810000D02*
X222250000Y-130810000D01*
X222250000Y-130810000D02*
X208282820Y-130810000D01*
X171940001Y-127094999D02*
X170575002Y-125730000D01*
X170575002Y-125730000D02*
X168275000Y-125730000D01*
X208281410Y-131445000D02*
X206071399Y-129234989D01*
X245745000Y-131445000D02*
X208281410Y-131445000D01*
X171940001Y-128175001D02*
X171940001Y-127094999D01*
X206071399Y-129234989D02*
X172999989Y-129234989D01*
X172999989Y-129234989D02*
X171940001Y-128175001D01*
X243205000Y-132715000D02*
X217170000Y-132715000D01*
X217170000Y-132715000D02*
X170815000Y-132715000D01*
X244475000Y-128270000D02*
X244475000Y-129540000D01*
X203204230Y-125095000D02*
X165735000Y-125095000D01*
X244475000Y-129540000D02*
X207649230Y-129540000D01*
X207649230Y-129540000D02*
X203204230Y-125095000D01*
X247015000Y-130175000D02*
X235585000Y-130175000D01*
X235585000Y-130175000D02*
X212090000Y-130175000D01*
X244475000Y-133350000D02*
X231775000Y-133350000D01*
X231775000Y-133350000D02*
X209550000Y-133350000D01*
X241935000Y-133985000D02*
X207010000Y-133985000D01*
X236855000Y-123190000D02*
X233045000Y-123190000D01*
X233045000Y-123190000D02*
X189865000Y-123190000D01*
X239395000Y-122555000D02*
X191135000Y-122555000D01*
X240665000Y-134620000D02*
X222885000Y-134620000D01*
X241935000Y-123825000D02*
X215900000Y-123825000D01*
X243205000Y-116840000D02*
X244475000Y-115570000D01*
X236855000Y-118110000D02*
X238125000Y-116840000D01*
X238125000Y-116840000D02*
X243205000Y-116840000D01*
M02*
