G04 #@! TF.GenerationSoftware,KiCad,Pcbnew,(5.1.6)-1*
G04 #@! TF.CreationDate,2021-02-24T01:51:28-05:00*
G04 #@! TF.ProjectId,512x512,35313278-3531-4322-9e6b-696361645f70,rev?*
G04 #@! TF.SameCoordinates,Original*
G04 #@! TF.FileFunction,Soldermask,Top*
G04 #@! TF.FilePolarity,Negative*
%FSLAX46Y46*%
G04 Gerber Fmt 4.6, Leading zero omitted, Abs format (unit mm)*
G04 Created by KiCad (PCBNEW (5.1.6)-1) date 2021-02-24 01:51:28*
%MOMM*%
%LPD*%
G01*
G04 APERTURE LIST*
%ADD10O,2.000000X2.000000*%
%ADD11R,2.000000X2.000000*%
%ADD12R,2.127200X2.432000*%
%ADD13O,2.127200X2.432000*%
%ADD14C,3.600000*%
%ADD15O,1.800000X1.800000*%
%ADD16C,1.800000*%
G04 APERTURE END LIST*
D10*
X229235000Y-107950000D03*
X247015000Y-115570000D03*
X231775000Y-107950000D03*
X244475000Y-115570000D03*
X234315000Y-107950000D03*
X241935000Y-115570000D03*
X236855000Y-107950000D03*
X239395000Y-115570000D03*
X239395000Y-107950000D03*
X236855000Y-115570000D03*
X241935000Y-107950000D03*
X234315000Y-115570000D03*
X244475000Y-107950000D03*
X231775000Y-115570000D03*
X247015000Y-107950000D03*
D11*
X229235000Y-115570000D03*
X229235000Y-125730000D03*
D10*
X247015000Y-118110000D03*
X231775000Y-125730000D03*
X244475000Y-118110000D03*
X234315000Y-125730000D03*
X241935000Y-118110000D03*
X236855000Y-125730000D03*
X239395000Y-118110000D03*
X239395000Y-125730000D03*
X236855000Y-118110000D03*
X241935000Y-125730000D03*
X234315000Y-118110000D03*
X244475000Y-125730000D03*
X231775000Y-118110000D03*
X247015000Y-125730000D03*
X229235000Y-118110000D03*
D11*
X229235000Y-135890000D03*
D10*
X247015000Y-128270000D03*
X231775000Y-135890000D03*
X244475000Y-128270000D03*
X234315000Y-135890000D03*
X241935000Y-128270000D03*
X236855000Y-135890000D03*
X239395000Y-128270000D03*
X239395000Y-135890000D03*
X236855000Y-128270000D03*
X241935000Y-135890000D03*
X234315000Y-128270000D03*
X244475000Y-135890000D03*
X231775000Y-128270000D03*
X247015000Y-135890000D03*
X229235000Y-128270000D03*
D12*
X155702000Y-151612600D03*
D13*
X158242000Y-151612600D03*
X160782000Y-151612600D03*
X163322000Y-151612600D03*
X165862000Y-151612600D03*
X168402000Y-151612600D03*
X170942000Y-151612600D03*
X173482000Y-151612600D03*
X176022000Y-151612600D03*
X178562000Y-151612600D03*
X181102000Y-151612600D03*
X183642000Y-151612600D03*
X186182000Y-151612600D03*
X188722000Y-151612600D03*
X191262000Y-151612600D03*
X193802000Y-151612600D03*
X196342000Y-151612600D03*
X198882000Y-151612600D03*
X201422000Y-151612600D03*
X203962000Y-151612600D03*
X206502000Y-151612600D03*
X209042000Y-151612600D03*
X211582000Y-151612600D03*
X214122000Y-151612600D03*
X216662000Y-151612600D03*
X219202000Y-151612600D03*
X221742000Y-151612600D03*
X224282000Y-151612600D03*
X226822000Y-151612600D03*
X229362000Y-151612600D03*
X231902000Y-151612600D03*
X234442000Y-151612600D03*
X236982000Y-151612600D03*
X239522000Y-151612600D03*
X242062000Y-151612600D03*
X244602000Y-151612600D03*
X247142000Y-151612600D03*
X249682000Y-151612600D03*
X252222000Y-151612600D03*
D14*
X158927800Y-120243600D03*
D15*
X224790000Y-115570000D03*
D16*
X224790000Y-107950000D03*
X222250000Y-107950000D03*
D15*
X222250000Y-115570000D03*
X219710000Y-115570000D03*
D16*
X219710000Y-107950000D03*
X217170000Y-107950000D03*
D15*
X217170000Y-115570000D03*
X214630000Y-115570000D03*
D16*
X214630000Y-107950000D03*
X212090000Y-107950000D03*
D15*
X212090000Y-115570000D03*
X209550000Y-115570000D03*
D16*
X209550000Y-107950000D03*
X207010000Y-107950000D03*
D15*
X207010000Y-115570000D03*
D11*
X165735000Y-146050000D03*
D10*
X203835000Y-130810000D03*
X168275000Y-146050000D03*
X201295000Y-130810000D03*
X170815000Y-146050000D03*
X198755000Y-130810000D03*
X173355000Y-146050000D03*
X196215000Y-130810000D03*
X175895000Y-146050000D03*
X193675000Y-130810000D03*
X178435000Y-146050000D03*
X191135000Y-130810000D03*
X180975000Y-146050000D03*
X188595000Y-130810000D03*
X183515000Y-146050000D03*
X186055000Y-130810000D03*
X186055000Y-146050000D03*
X183515000Y-130810000D03*
X188595000Y-146050000D03*
X180975000Y-130810000D03*
X191135000Y-146050000D03*
X178435000Y-130810000D03*
X193675000Y-146050000D03*
X175895000Y-130810000D03*
X196215000Y-146050000D03*
X173355000Y-130810000D03*
X198755000Y-146050000D03*
X170815000Y-130810000D03*
X201295000Y-146050000D03*
X168275000Y-130810000D03*
X203835000Y-146050000D03*
X165735000Y-130810000D03*
X165735000Y-112395000D03*
X203835000Y-127635000D03*
X168275000Y-112395000D03*
X201295000Y-127635000D03*
X170815000Y-112395000D03*
X198755000Y-127635000D03*
X173355000Y-112395000D03*
X196215000Y-127635000D03*
X175895000Y-112395000D03*
X193675000Y-127635000D03*
X178435000Y-112395000D03*
X191135000Y-127635000D03*
X180975000Y-112395000D03*
X188595000Y-127635000D03*
X183515000Y-112395000D03*
X186055000Y-127635000D03*
X186055000Y-112395000D03*
X183515000Y-127635000D03*
X188595000Y-112395000D03*
X180975000Y-127635000D03*
X191135000Y-112395000D03*
X178435000Y-127635000D03*
X193675000Y-112395000D03*
X175895000Y-127635000D03*
X196215000Y-112395000D03*
X173355000Y-127635000D03*
X198755000Y-112395000D03*
X170815000Y-127635000D03*
X201295000Y-112395000D03*
X168275000Y-127635000D03*
X203835000Y-112395000D03*
D11*
X165735000Y-127635000D03*
D10*
X229235000Y-138430000D03*
X247015000Y-146050000D03*
X231775000Y-138430000D03*
X244475000Y-146050000D03*
X234315000Y-138430000D03*
X241935000Y-146050000D03*
X236855000Y-138430000D03*
X239395000Y-146050000D03*
X239395000Y-138430000D03*
X236855000Y-146050000D03*
X241935000Y-138430000D03*
X234315000Y-146050000D03*
X244475000Y-138430000D03*
X231775000Y-146050000D03*
X247015000Y-138430000D03*
D11*
X229235000Y-146050000D03*
X208915000Y-146050000D03*
D10*
X224155000Y-138430000D03*
X211455000Y-146050000D03*
X221615000Y-138430000D03*
X213995000Y-146050000D03*
X219075000Y-138430000D03*
X216535000Y-146050000D03*
X216535000Y-138430000D03*
X219075000Y-146050000D03*
X213995000Y-138430000D03*
X221615000Y-146050000D03*
X211455000Y-138430000D03*
X224155000Y-146050000D03*
X208915000Y-138430000D03*
G36*
G01*
X161775000Y-130453750D02*
X161775000Y-131166250D01*
G75*
G02*
X161456250Y-131485000I-318750J0D01*
G01*
X160818750Y-131485000D01*
G75*
G02*
X160500000Y-131166250I0J318750D01*
G01*
X160500000Y-130453750D01*
G75*
G02*
X160818750Y-130135000I318750J0D01*
G01*
X161456250Y-130135000D01*
G75*
G02*
X161775000Y-130453750I0J-318750D01*
G01*
G37*
G36*
G01*
X163350000Y-130453750D02*
X163350000Y-131166250D01*
G75*
G02*
X163031250Y-131485000I-318750J0D01*
G01*
X162393750Y-131485000D01*
G75*
G02*
X162075000Y-131166250I0J318750D01*
G01*
X162075000Y-130453750D01*
G75*
G02*
X162393750Y-130135000I318750J0D01*
G01*
X163031250Y-130135000D01*
G75*
G02*
X163350000Y-130453750I0J-318750D01*
G01*
G37*
G36*
G01*
X163350000Y-133628750D02*
X163350000Y-134341250D01*
G75*
G02*
X163031250Y-134660000I-318750J0D01*
G01*
X162393750Y-134660000D01*
G75*
G02*
X162075000Y-134341250I0J318750D01*
G01*
X162075000Y-133628750D01*
G75*
G02*
X162393750Y-133310000I318750J0D01*
G01*
X163031250Y-133310000D01*
G75*
G02*
X163350000Y-133628750I0J-318750D01*
G01*
G37*
G36*
G01*
X161775000Y-133628750D02*
X161775000Y-134341250D01*
G75*
G02*
X161456250Y-134660000I-318750J0D01*
G01*
X160818750Y-134660000D01*
G75*
G02*
X160500000Y-134341250I0J318750D01*
G01*
X160500000Y-133628750D01*
G75*
G02*
X160818750Y-133310000I318750J0D01*
G01*
X161456250Y-133310000D01*
G75*
G02*
X161775000Y-133628750I0J-318750D01*
G01*
G37*
G36*
G01*
X161775000Y-113308750D02*
X161775000Y-114021250D01*
G75*
G02*
X161456250Y-114340000I-318750J0D01*
G01*
X160818750Y-114340000D01*
G75*
G02*
X160500000Y-114021250I0J318750D01*
G01*
X160500000Y-113308750D01*
G75*
G02*
X160818750Y-112990000I318750J0D01*
G01*
X161456250Y-112990000D01*
G75*
G02*
X161775000Y-113308750I0J-318750D01*
G01*
G37*
G36*
G01*
X163350000Y-113308750D02*
X163350000Y-114021250D01*
G75*
G02*
X163031250Y-114340000I-318750J0D01*
G01*
X162393750Y-114340000D01*
G75*
G02*
X162075000Y-114021250I0J318750D01*
G01*
X162075000Y-113308750D01*
G75*
G02*
X162393750Y-112990000I318750J0D01*
G01*
X163031250Y-112990000D01*
G75*
G02*
X163350000Y-113308750I0J-318750D01*
G01*
G37*
G36*
G01*
X163350000Y-115848750D02*
X163350000Y-116561250D01*
G75*
G02*
X163031250Y-116880000I-318750J0D01*
G01*
X162393750Y-116880000D01*
G75*
G02*
X162075000Y-116561250I0J318750D01*
G01*
X162075000Y-115848750D01*
G75*
G02*
X162393750Y-115530000I318750J0D01*
G01*
X163031250Y-115530000D01*
G75*
G02*
X163350000Y-115848750I0J-318750D01*
G01*
G37*
G36*
G01*
X161775000Y-115848750D02*
X161775000Y-116561250D01*
G75*
G02*
X161456250Y-116880000I-318750J0D01*
G01*
X160818750Y-116880000D01*
G75*
G02*
X160500000Y-116561250I0J318750D01*
G01*
X160500000Y-115848750D01*
G75*
G02*
X160818750Y-115530000I318750J0D01*
G01*
X161456250Y-115530000D01*
G75*
G02*
X161775000Y-115848750I0J-318750D01*
G01*
G37*
G36*
G01*
X250975000Y-141326250D02*
X250975000Y-140613750D01*
G75*
G02*
X251293750Y-140295000I318750J0D01*
G01*
X251931250Y-140295000D01*
G75*
G02*
X252250000Y-140613750I0J-318750D01*
G01*
X252250000Y-141326250D01*
G75*
G02*
X251931250Y-141645000I-318750J0D01*
G01*
X251293750Y-141645000D01*
G75*
G02*
X250975000Y-141326250I0J318750D01*
G01*
G37*
G36*
G01*
X249400000Y-141326250D02*
X249400000Y-140613750D01*
G75*
G02*
X249718750Y-140295000I318750J0D01*
G01*
X250356250Y-140295000D01*
G75*
G02*
X250675000Y-140613750I0J-318750D01*
G01*
X250675000Y-141326250D01*
G75*
G02*
X250356250Y-141645000I-318750J0D01*
G01*
X249718750Y-141645000D01*
G75*
G02*
X249400000Y-141326250I0J318750D01*
G01*
G37*
G36*
G01*
X249400000Y-143866250D02*
X249400000Y-143153750D01*
G75*
G02*
X249718750Y-142835000I318750J0D01*
G01*
X250356250Y-142835000D01*
G75*
G02*
X250675000Y-143153750I0J-318750D01*
G01*
X250675000Y-143866250D01*
G75*
G02*
X250356250Y-144185000I-318750J0D01*
G01*
X249718750Y-144185000D01*
G75*
G02*
X249400000Y-143866250I0J318750D01*
G01*
G37*
G36*
G01*
X250975000Y-143866250D02*
X250975000Y-143153750D01*
G75*
G02*
X251293750Y-142835000I318750J0D01*
G01*
X251931250Y-142835000D01*
G75*
G02*
X252250000Y-143153750I0J-318750D01*
G01*
X252250000Y-143866250D01*
G75*
G02*
X251931250Y-144185000I-318750J0D01*
G01*
X251293750Y-144185000D01*
G75*
G02*
X250975000Y-143866250I0J318750D01*
G01*
G37*
G36*
G01*
X250975000Y-131166250D02*
X250975000Y-130453750D01*
G75*
G02*
X251293750Y-130135000I318750J0D01*
G01*
X251931250Y-130135000D01*
G75*
G02*
X252250000Y-130453750I0J-318750D01*
G01*
X252250000Y-131166250D01*
G75*
G02*
X251931250Y-131485000I-318750J0D01*
G01*
X251293750Y-131485000D01*
G75*
G02*
X250975000Y-131166250I0J318750D01*
G01*
G37*
G36*
G01*
X249400000Y-131166250D02*
X249400000Y-130453750D01*
G75*
G02*
X249718750Y-130135000I318750J0D01*
G01*
X250356250Y-130135000D01*
G75*
G02*
X250675000Y-130453750I0J-318750D01*
G01*
X250675000Y-131166250D01*
G75*
G02*
X250356250Y-131485000I-318750J0D01*
G01*
X249718750Y-131485000D01*
G75*
G02*
X249400000Y-131166250I0J318750D01*
G01*
G37*
G36*
G01*
X249400000Y-133706250D02*
X249400000Y-132993750D01*
G75*
G02*
X249718750Y-132675000I318750J0D01*
G01*
X250356250Y-132675000D01*
G75*
G02*
X250675000Y-132993750I0J-318750D01*
G01*
X250675000Y-133706250D01*
G75*
G02*
X250356250Y-134025000I-318750J0D01*
G01*
X249718750Y-134025000D01*
G75*
G02*
X249400000Y-133706250I0J318750D01*
G01*
G37*
G36*
G01*
X250975000Y-133706250D02*
X250975000Y-132993750D01*
G75*
G02*
X251293750Y-132675000I318750J0D01*
G01*
X251931250Y-132675000D01*
G75*
G02*
X252250000Y-132993750I0J-318750D01*
G01*
X252250000Y-133706250D01*
G75*
G02*
X251931250Y-134025000I-318750J0D01*
G01*
X251293750Y-134025000D01*
G75*
G02*
X250975000Y-133706250I0J318750D01*
G01*
G37*
G36*
G01*
X250975000Y-121006250D02*
X250975000Y-120293750D01*
G75*
G02*
X251293750Y-119975000I318750J0D01*
G01*
X251931250Y-119975000D01*
G75*
G02*
X252250000Y-120293750I0J-318750D01*
G01*
X252250000Y-121006250D01*
G75*
G02*
X251931250Y-121325000I-318750J0D01*
G01*
X251293750Y-121325000D01*
G75*
G02*
X250975000Y-121006250I0J318750D01*
G01*
G37*
G36*
G01*
X249400000Y-121006250D02*
X249400000Y-120293750D01*
G75*
G02*
X249718750Y-119975000I318750J0D01*
G01*
X250356250Y-119975000D01*
G75*
G02*
X250675000Y-120293750I0J-318750D01*
G01*
X250675000Y-121006250D01*
G75*
G02*
X250356250Y-121325000I-318750J0D01*
G01*
X249718750Y-121325000D01*
G75*
G02*
X249400000Y-121006250I0J318750D01*
G01*
G37*
G36*
G01*
X249400000Y-123546250D02*
X249400000Y-122833750D01*
G75*
G02*
X249718750Y-122515000I318750J0D01*
G01*
X250356250Y-122515000D01*
G75*
G02*
X250675000Y-122833750I0J-318750D01*
G01*
X250675000Y-123546250D01*
G75*
G02*
X250356250Y-123865000I-318750J0D01*
G01*
X249718750Y-123865000D01*
G75*
G02*
X249400000Y-123546250I0J318750D01*
G01*
G37*
G36*
G01*
X250975000Y-123546250D02*
X250975000Y-122833750D01*
G75*
G02*
X251293750Y-122515000I318750J0D01*
G01*
X251931250Y-122515000D01*
G75*
G02*
X252250000Y-122833750I0J-318750D01*
G01*
X252250000Y-123546250D01*
G75*
G02*
X251931250Y-123865000I-318750J0D01*
G01*
X251293750Y-123865000D01*
G75*
G02*
X250975000Y-123546250I0J318750D01*
G01*
G37*
G36*
G01*
X250975000Y-110846250D02*
X250975000Y-110133750D01*
G75*
G02*
X251293750Y-109815000I318750J0D01*
G01*
X251931250Y-109815000D01*
G75*
G02*
X252250000Y-110133750I0J-318750D01*
G01*
X252250000Y-110846250D01*
G75*
G02*
X251931250Y-111165000I-318750J0D01*
G01*
X251293750Y-111165000D01*
G75*
G02*
X250975000Y-110846250I0J318750D01*
G01*
G37*
G36*
G01*
X249400000Y-110846250D02*
X249400000Y-110133750D01*
G75*
G02*
X249718750Y-109815000I318750J0D01*
G01*
X250356250Y-109815000D01*
G75*
G02*
X250675000Y-110133750I0J-318750D01*
G01*
X250675000Y-110846250D01*
G75*
G02*
X250356250Y-111165000I-318750J0D01*
G01*
X249718750Y-111165000D01*
G75*
G02*
X249400000Y-110846250I0J318750D01*
G01*
G37*
G36*
G01*
X249400000Y-113386250D02*
X249400000Y-112673750D01*
G75*
G02*
X249718750Y-112355000I318750J0D01*
G01*
X250356250Y-112355000D01*
G75*
G02*
X250675000Y-112673750I0J-318750D01*
G01*
X250675000Y-113386250D01*
G75*
G02*
X250356250Y-113705000I-318750J0D01*
G01*
X249718750Y-113705000D01*
G75*
G02*
X249400000Y-113386250I0J318750D01*
G01*
G37*
G36*
G01*
X250975000Y-113386250D02*
X250975000Y-112673750D01*
G75*
G02*
X251293750Y-112355000I318750J0D01*
G01*
X251931250Y-112355000D01*
G75*
G02*
X252250000Y-112673750I0J-318750D01*
G01*
X252250000Y-113386250D01*
G75*
G02*
X251931250Y-113705000I-318750J0D01*
G01*
X251293750Y-113705000D01*
G75*
G02*
X250975000Y-113386250I0J318750D01*
G01*
G37*
M02*
