M48
; DRILL file {KiCad (5.1.6)-1} date 02/24/21 01:51:58
; FORMAT={-:-/ absolute / inch / decimal}
; #@! TF.CreationDate,2021-02-24T01:51:58-05:00
; #@! TF.GenerationSoftware,Kicad,Pcbnew,(5.1.6)-1
FMAT,2
INCH
T1C0.0157
T2C0.0276
T3C0.0315
T4C0.0400
T5C0.1260
%
G90
G05
T1
X6.15Y-4.9
X6.25Y-5.5
X6.3Y-4.575
X6.35Y-5.1
X6.425Y-5.85
X6.525Y-4.925
X6.525Y-5.4
X6.525Y-5.85
X6.575Y-4.525
X6.625Y-5.35
X6.625Y-4.55
X6.625Y-4.95
X6.625Y-5.875
X6.725Y-5.225
X6.725Y-5.825
X6.775Y-4.55
X6.775Y-4.95
X6.825Y-4.525
X6.85Y-5.8
X6.875Y-5.7
X6.975Y-4.5
X7.025Y-4.75
X7.15Y-4.725
X7.275Y-4.7
X7.325Y-5.3
X7.425Y-4.8
X7.475Y-4.85
X7.475Y-5.675
X7.5234Y-5.4016
X7.525Y-4.825
X7.575Y-5.375
X7.575Y-5.575
X7.625Y-4.875
X7.675Y-5.6
X7.725Y-5.65
X7.775Y-5.625
X7.825Y-5.55
X7.9Y-5.525
X7.975Y-5.475
X8.025Y-5.675
X8.125Y-4.775
X8.125Y-5.475
X8.15Y-5.275
X8.25Y-5.25
X8.275Y-5.325
X8.325Y-5.65
X8.35Y-5.125
X8.375Y-4.6
X8.375Y-5.35
X8.45Y-5.1
X8.5Y-4.875
X8.55Y-5.225
X8.575Y-5.3
X8.65Y-5.175
X8.7Y-4.475
X8.75Y-5.15
X8.775Y-5.3
X8.775Y-5.65
X8.85Y-5.2
X8.875Y-4.95
X8.875Y-5.325
X8.875Y-5.55
X8.9Y-5.7
X8.925Y-5.425
X8.925Y-5.675
X8.95Y-5.525
X8.965Y-4.7
X9.025Y-5.55
X9.075Y-5.625
X9.1Y-5.65
X9.175Y-4.725
X9.175Y-4.9
X9.175Y-5.125
X9.175Y-5.6
X9.225Y-4.8
X9.225Y-5.25
X9.225Y-5.675
X9.275Y-4.75
X9.275Y-4.9
X9.275Y-5.575
X9.275Y-5.625
X9.3238Y-4.8545
X9.3254Y-4.4704
X9.35Y-5.0
X9.375Y-4.775
X9.4Y-5.6
X9.425Y-4.5
X9.425Y-4.825
X9.475Y-5.3
X9.475Y-5.55
X9.525Y-4.875
X9.525Y-5.275
X9.525Y-5.575
X9.575Y-5.225
X9.625Y-5.25
X9.675Y-5.175
X9.725Y-5.125
X9.775Y-5.15
T2
X8.55Y-4.25
X8.55Y-4.55
X8.15Y-4.25
X8.15Y-4.55
X8.65Y-4.25
X8.65Y-4.55
X8.85Y-4.25
X8.85Y-4.55
X8.35Y-4.25
X8.35Y-4.55
X8.25Y-4.25
X8.25Y-4.55
X8.45Y-4.25
X8.45Y-4.55
X8.75Y-4.25
X8.75Y-4.55
T3
X9.025Y-4.25
X9.025Y-4.55
X9.125Y-4.25
X9.125Y-4.55
X9.225Y-4.25
X9.225Y-4.55
X9.325Y-4.25
X9.325Y-4.55
X9.425Y-4.25
X9.425Y-4.55
X9.525Y-4.25
X9.525Y-4.55
X9.625Y-4.25
X9.625Y-4.55
X9.725Y-4.25
X9.725Y-4.55
X9.025Y-4.65
X9.025Y-4.95
X9.125Y-4.65
X9.125Y-4.95
X9.225Y-4.65
X9.225Y-4.95
X9.325Y-4.65
X9.325Y-4.95
X9.425Y-4.65
X9.425Y-4.95
X9.525Y-4.65
X9.525Y-4.95
X9.625Y-4.65
X9.625Y-4.95
X9.725Y-4.65
X9.725Y-4.95
X6.525Y-4.425
X6.525Y-5.025
X6.625Y-4.425
X6.625Y-5.025
X6.725Y-4.425
X6.725Y-5.025
X6.825Y-4.425
X6.825Y-5.025
X6.925Y-4.425
X6.925Y-5.025
X7.025Y-4.425
X7.025Y-5.025
X7.125Y-4.425
X7.125Y-5.025
X7.225Y-4.425
X7.225Y-5.025
X7.325Y-4.425
X7.325Y-5.025
X7.425Y-4.425
X7.425Y-5.025
X7.525Y-4.425
X7.525Y-5.025
X7.625Y-4.425
X7.625Y-5.025
X7.725Y-4.425
X7.725Y-5.025
X7.825Y-4.425
X7.825Y-5.025
X7.925Y-4.425
X7.925Y-5.025
X8.025Y-4.425
X8.025Y-5.025
X8.225Y-5.45
X8.225Y-5.75
X8.325Y-5.45
X8.325Y-5.75
X8.425Y-5.45
X8.425Y-5.75
X8.525Y-5.45
X8.525Y-5.75
X8.625Y-5.45
X8.625Y-5.75
X8.725Y-5.45
X8.725Y-5.75
X8.825Y-5.45
X8.825Y-5.75
X9.025Y-5.45
X9.025Y-5.75
X9.125Y-5.45
X9.125Y-5.75
X9.225Y-5.45
X9.225Y-5.75
X9.325Y-5.45
X9.325Y-5.75
X9.425Y-5.45
X9.425Y-5.75
X9.525Y-5.45
X9.525Y-5.75
X9.625Y-5.45
X9.625Y-5.75
X9.725Y-5.45
X9.725Y-5.75
X6.525Y-5.15
X6.525Y-5.75
X6.625Y-5.15
X6.625Y-5.75
X6.725Y-5.15
X6.725Y-5.75
X6.825Y-5.15
X6.825Y-5.75
X6.925Y-5.15
X6.925Y-5.75
X7.025Y-5.15
X7.025Y-5.75
X7.125Y-5.15
X7.125Y-5.75
X7.225Y-5.15
X7.225Y-5.75
X7.325Y-5.15
X7.325Y-5.75
X7.425Y-5.15
X7.425Y-5.75
X7.525Y-5.15
X7.525Y-5.75
X7.625Y-5.15
X7.625Y-5.75
X7.725Y-5.15
X7.725Y-5.75
X7.825Y-5.15
X7.825Y-5.75
X7.925Y-5.15
X7.925Y-5.75
X8.025Y-5.15
X8.025Y-5.75
X9.025Y-5.05
X9.025Y-5.35
X9.125Y-5.05
X9.125Y-5.35
X9.225Y-5.05
X9.225Y-5.35
X9.325Y-5.05
X9.325Y-5.35
X9.425Y-5.05
X9.425Y-5.35
X9.525Y-5.05
X9.525Y-5.35
X9.625Y-5.05
X9.625Y-5.35
X9.725Y-5.05
X9.725Y-5.35
T4
X6.13Y-5.969
X6.23Y-5.969
X6.33Y-5.969
X6.43Y-5.969
X6.53Y-5.969
X6.63Y-5.969
X6.73Y-5.969
X6.83Y-5.969
X6.93Y-5.969
X7.03Y-5.969
X7.13Y-5.969
X7.23Y-5.969
X7.33Y-5.969
X7.43Y-5.969
X7.53Y-5.969
X7.63Y-5.969
X7.73Y-5.969
X7.83Y-5.969
X7.93Y-5.969
X8.03Y-5.969
X8.13Y-5.969
X8.23Y-5.969
X8.33Y-5.969
X8.43Y-5.969
X8.53Y-5.969
X8.63Y-5.969
X8.73Y-5.969
X8.83Y-5.969
X8.93Y-5.969
X9.03Y-5.969
X9.13Y-5.969
X9.23Y-5.969
X9.33Y-5.969
X9.43Y-5.969
X9.53Y-5.969
X9.63Y-5.969
X9.73Y-5.969
X9.83Y-5.969
X9.93Y-5.969
T5
X6.257Y-4.734
T0
M30
