M48
INCH,TZ
T1C0.0157
T2C0.0276
T3C0.0315
T4C0.0400
T5C0.1260
%
G90
G05
T1
X61500Y-49000
X62500Y-55000
X63000Y-45750
X63500Y-51000
X64250Y-58500
X65250Y-49250
X65250Y-54000
X65250Y-58500
X65750Y-45250
X66250Y-53500
X66250Y-45500
X66250Y-49500
X66250Y-58750
X67250Y-52250
X67250Y-58250
X67750Y-45500
X67750Y-49500
X68250Y-45250
X68500Y-58000
X68750Y-57000
X69750Y-45000
X70250Y-47500
X71500Y-47250
X72750Y-47000
X73250Y-53000
X74250Y-48000
X74750Y-48500
X74750Y-56750
X75234Y-54016
X75250Y-48250
X75750Y-53750
X75750Y-55750
X76250Y-48750
X76750Y-56000
X77250Y-56500
X77750Y-56250
X78250Y-55500
X79000Y-55250
X79750Y-54750
X80250Y-56750
X81250Y-47750
X81250Y-54750
X81500Y-52750
X82500Y-52500
X82750Y-53250
X83250Y-56500
X83500Y-51250
X83750Y-46000
X83750Y-53500
X84500Y-51000
X85000Y-48750
X85500Y-52250
X85750Y-53000
X86500Y-51750
X87000Y-44750
X87500Y-51500
X87750Y-53000
X87750Y-56500
X88500Y-52000
X88750Y-49500
X88750Y-53250
X88750Y-55500
X89000Y-57000
X89250Y-54250
X89250Y-56750
X89500Y-55250
X89750Y-46000
X90250Y-44750
X90250Y-55500
X90750Y-56250
X91000Y-56500
X91250Y-45000
X91250Y-52500
X91750Y-49000
X91750Y-56000
X92250Y-48000
X92250Y-56750
X92750Y-48000
X92750Y-49000
X92750Y-51250
X92750Y-55750
X92750Y-56250
X93250Y-48500
X93500Y-50000
X93750Y-48000
X94000Y-56000
X94250Y-48250
X94750Y-48000
X94750Y-53000
X94750Y-55500
X95250Y-48750
X95250Y-52750
X95250Y-55750
X95750Y-48000
X95750Y-52250
X96250Y-52500
X96750Y-51750
X97250Y-51250
X97750Y-51500
T2
X86500Y-42500
X86500Y-45500
X82500Y-42500
X82500Y-45500
X87500Y-42500
X87500Y-45500
X83500Y-42500
X83500Y-45500
X81500Y-42500
X81500Y-45500
X84500Y-42500
X84500Y-45500
X85500Y-42500
X85500Y-45500
X88500Y-42500
X88500Y-45500
T3
X65250Y-44250
X65250Y-50250
X66250Y-44250
X66250Y-50250
X67250Y-44250
X67250Y-50250
X68250Y-44250
X68250Y-50250
X69250Y-44250
X69250Y-50250
X70250Y-44250
X70250Y-50250
X71250Y-44250
X71250Y-50250
X72250Y-44250
X72250Y-50250
X73250Y-44250
X73250Y-50250
X74250Y-44250
X74250Y-50250
X75250Y-44250
X75250Y-50250
X76250Y-44250
X76250Y-50250
X77250Y-44250
X77250Y-50250
X78250Y-44250
X78250Y-50250
X79250Y-44250
X79250Y-50250
X80250Y-44250
X80250Y-50250
X82250Y-54500
X82250Y-57500
X83250Y-54500
X83250Y-57500
X84250Y-54500
X84250Y-57500
X85250Y-54500
X85250Y-57500
X86250Y-54500
X86250Y-57500
X87250Y-54500
X87250Y-57500
X88250Y-54500
X88250Y-57500
X90250Y-54500
X90250Y-57500
X91250Y-54500
X91250Y-57500
X92250Y-54500
X92250Y-57500
X93250Y-54500
X93250Y-57500
X94250Y-54500
X94250Y-57500
X95250Y-54500
X95250Y-57500
X96250Y-54500
X96250Y-57500
X97250Y-54500
X97250Y-57500
X90250Y-42500
X90250Y-45500
X91250Y-42500
X91250Y-45500
X92250Y-42500
X92250Y-45500
X93250Y-42500
X93250Y-45500
X94250Y-42500
X94250Y-45500
X95250Y-42500
X95250Y-45500
X96250Y-42500
X96250Y-45500
X97250Y-42500
X97250Y-45500
X90250Y-46500
X90250Y-49500
X91250Y-46500
X91250Y-49500
X92250Y-46500
X92250Y-49500
X93250Y-46500
X93250Y-49500
X94250Y-46500
X94250Y-49500
X95250Y-46500
X95250Y-49500
X96250Y-46500
X96250Y-49500
X97250Y-46500
X97250Y-49500
X65250Y-51500
X65250Y-57500
X66250Y-51500
X66250Y-57500
X67250Y-51500
X67250Y-57500
X68250Y-51500
X68250Y-57500
X69250Y-51500
X69250Y-57500
X70250Y-51500
X70250Y-57500
X71250Y-51500
X71250Y-57500
X72250Y-51500
X72250Y-57500
X73250Y-51500
X73250Y-57500
X74250Y-51500
X74250Y-57500
X75250Y-51500
X75250Y-57500
X76250Y-51500
X76250Y-57500
X77250Y-51500
X77250Y-57500
X78250Y-51500
X78250Y-57500
X79250Y-51500
X79250Y-57500
X80250Y-51500
X80250Y-57500
X90250Y-50500
X90250Y-53500
X91250Y-50500
X91250Y-53500
X92250Y-50500
X92250Y-53500
X93250Y-50500
X93250Y-53500
X94250Y-50500
X94250Y-53500
X95250Y-50500
X95250Y-53500
X96250Y-50500
X96250Y-53500
X97250Y-50500
X97250Y-53500
T4
X61300Y-59690
X62300Y-59690
X63300Y-59690
X64300Y-59690
X65300Y-59690
X66300Y-59690
X67300Y-59690
X68300Y-59690
X69300Y-59690
X70300Y-59690
X71300Y-59690
X72300Y-59690
X73300Y-59690
X74300Y-59690
X75300Y-59690
X76300Y-59690
X77300Y-59690
X78300Y-59690
X79300Y-59690
X80300Y-59690
X81300Y-59690
X82300Y-59690
X83300Y-59690
X84300Y-59690
X85300Y-59690
X86300Y-59690
X87300Y-59690
X88300Y-59690
X89300Y-59690
X90300Y-59690
X91300Y-59690
X92300Y-59690
X93300Y-59690
X94300Y-59690
X95300Y-59690
X96300Y-59690
X97300Y-59690
X98300Y-59690
X99300Y-59690
T5
X62570Y-47340
T0
M30
